<?xml version="1.0" encoding="UTF-8"?>
<svg id="Capa_2" data-name="Capa 2" xmlns="http://www.w3.org/2000/svg" viewBox="0 0 24 24">
  <path d="M13.59,5.86c0-1.42,1.05-2.58,2.58-2.58h3.21c1.42,0,2.58,1.16,2.58,2.58v5.8" fill="none" stroke="currentColor" stroke-linecap="round" stroke-linejoin="round" stroke-width="1.5"/>
  <path d="M21.96,11.65h-5.8c-.96,0-1.72-.45-2.16-1.14" fill="none" stroke="currentColor" stroke-linecap="round" stroke-linejoin="round" stroke-width="1.5"/>
  <path d="M21.96,11.65c0,6.05-1.13,7.05-4.53,9.07" fill="none" stroke="currentColor" stroke-linecap="round" stroke-linejoin="round" stroke-width="1.5"/>
  <path d="M10.33,11.65h-5.8c-1.53,0-2.58-1.16-2.58-2.58v-3.22c0-1.42,1.05-2.58,2.58-2.58h3.23c1.42,0,2.58,1.16,2.58,2.58v5.8" fill="none" stroke="currentColor" stroke-linecap="round" stroke-linejoin="round" stroke-width="1.5"/>
  <path d="M10.33,11.65c0,6.05-1.13,7.05-4.53,9.07" fill="none" stroke="currentColor" stroke-linecap="round" stroke-linejoin="round" stroke-width="1.5"/>
</svg>