<?xml version="1.0" encoding="UTF-8"?>
<svg id="Capa_1" data-name="Capa 1" xmlns="http://www.w3.org/2000/svg" viewBox="0 0 24 24">
  <path d="M5.79,15.15l-2.56-2.56c-.29-.29-.29-.77,0-1.06l2.56-2.56c.29-.29.77-.29,1.06,0,.29.29.29.77,0,1.06l-2.03,2.03,2.03,2.03c.29.29.29.77,0,1.06-.15.15-.34.22-.53.22s-.38-.07-.53-.22Z" fill="currentColor" stroke-width="0"/>
  <path d="M3.08,12.06c0-.41.34-.75.75-.75h10.17c.41,0,.75.34.75.75s-.34.75-.75.75H3.83c-.41,0-.75-.34-.75-.75Z" fill="currentColor" stroke-width="0"/>
  <path d="M11.25,20c0-.41.34-.75.75-.75,4.27,0,7.25-2.98,7.25-7.25s-2.98-7.25-7.25-7.25c-.41,0-.75-.34-.75-.75s.34-.75.75-.75c5.15,0,8.75,3.6,8.75,8.75,0,5.15-3.6,8.75-8.75,8.75-.41,0-.75-.34-.75-.75Z" fill="currentColor" stroke-width="0"/>
</svg>