<svg id="Capa_1" data-name="Capa 1" xmlns="http://www.w3.org/2000/svg" viewBox="0 0 24 24">
  <path d="M13.75,6.74v11.88s5.5,0,5.5,0V6.74c0-1.52-.64-2.12-2.23-2.12h-1.04c-1.58,0-2.22.6-2.23,2.12Z" fill="currentColor" stroke-width="0"/>
  <path d="M5.25,11.74v6.88s5.5,0,5.5,0v-6.88c0-1.51-.64-2.12-2.23-2.12h-1.04c-1.58,0-2.23.61-2.23,2.12Z" fill="currentColor" stroke-width="0"/>
  <path d="M22,18.62c0,.42-.34.76-.75.76H2.75c-.41,0-.75-.34-.75-.75s.34-.75.75-.75h18.5c.41,0,.75.32.75.74Z" fill="currentColor" stroke-width="0"/>
</svg>