<svg xmlns="http://www.w3.org/2000/svg" viewBox="0 0 24 24">
	<path d="M11.43,14.14v6.82c0,.76-.77,1.26-1.45.93-2.06-1.01-5.53-2.9-5.53-2.9-1.22-.69-2.22-2.43-2.22-3.86v-5.16c0-.79.83-1.29,1.51-.9l7.19,4.17c.3.19.5.53.5.9Z" fill="currentColor" stroke-width="0"/>
	<path d="M20.26,9.07l-2.41,1.4v3.11c0,.41-.34.87-.75,1.02l-.1.04c-.41.15-.75-.07-.75-.48v-2.76l-3.18,1.84c-.3.19-.5.53-.5.9v6.82c0,.76.77,1.26,1.45.93,2.06-1.01,5.53-2.9,5.53-2.9,1.22-.69,2.22-2.43,2.22-3.86v-5.16c0-.79-.83-1.29-1.51-.9Z" fill="currentColor" stroke-width="0"/>
	<path d="M6.33,4.47l-1.84,1.02c-.35.19-.68.46-.97.79-.42.47-.28,1.22.27,1.54l7.7,4.46c.32.18.71.18,1.02,0l3.66-2.12L6.33,4.47Z" fill="currentColor" stroke-width="0"/>
	<path d="M20.5,6.28c-.29-.32-.62-.6-.97-.79l-5.42-3c-1.16-.65-3.04-.65-4.2,0l-1.95,1.08,9.81,5.66,2.44-1.41c.55-.32.69-1.07.29-1.54Z" fill="currentColor" stroke-width="0"/>
 </svg>