<?xml version="1.0" encoding="UTF-8"?>
<svg id="Capa_1" data-name="Capa 1" xmlns="http://www.w3.org/2000/svg" viewBox="0 0 24 24">
  <path d="M15.37,12.81h-5.47s0,8.33,0,8.33c0,.48.39.86.86.86,5.89,0,10-4.11,10-10,0-5.89-4.11-10-10-10-.48,0-.86.38-.87.86v8.46s5.48,0,5.48,0c.41,0,.75.34.75.75,0,.41-.33.75-.75.74Z" fill="currentColor" stroke-width="0"/>
  <path d="M3.46,12.58l2.84,2.85c.15.15.34.22.53.22s.38-.07.53-.22c.29-.29.29-.77,0-1.06l-1.56-1.56h4.09s0-1.5,0-1.5h-4.1s1.56-1.56,1.56-1.56c.29-.29.29-.77,0-1.06-.29-.29-.77-.29-1.06,0l-2.84,2.85c-.29.29-.29.76,0,1.04Z" fill="currentColor" stroke-width="0"/>
</svg>