<!-- Generated by IcoMoon.io -->
<svg version="1.1" xmlns="http://www.w3.org/2000/svg" viewBox="0 0 32 32">
<path fill="currentColor" opacity="0.4" d="M16 29.333c7.364 0 13.333-5.97 13.333-13.333s-5.97-13.333-13.333-13.333c-7.364 0-13.333 5.97-13.333 13.333s5.97 13.333 13.333 13.333z"></path>
<path fill="currentColor" d="M22.253 20.933l-5.333-12c-0.32-0.72-1.507-0.72-1.827 0l-2.693 6.067h-1.733c-0.547 0-1 0.453-1 1s0.453 1 1 1h0.827l-1.747 3.933c-0.227 0.507 0 1.093 0.507 1.32s1.093 0 1.32-0.507l2.107-4.733h2.32c0.547 0 1-0.453 1-1s-0.453-1-1-1h-1.427l1.427-3.2 4.413 9.947c0.16 0.373 0.533 0.6 0.92 0.6 0.133 0 0.28-0.027 0.4-0.080 0.507-0.253 0.733-0.853 0.52-1.347z"></path>
</svg>
