<!-- Generated by IcoMoon.io -->
<svg version="1.1" xmlns="http://www.w3.org/2000/svg" viewBox="0 0 32 32">
<path fill="currentColor" d="M14.667 24v4c0 0.733-0.6 1.333-1.333 1.333s-1.333-0.6-1.333-1.333v-4h2.667z"></path>
<path fill="currentColor" d="M20 24v4c0 0.733-0.6 1.333-1.333 1.333s-1.333-0.6-1.333-1.333v-4h2.667z"></path>
<path fill="currentColor" opacity="0.4" d="M22.667 14.667v6.667c0 1.467-1.2 2.667-2.667 2.667h-8c-1.467 0-2.667-1.2-2.667-2.667v-6.667c0-1.467 1.2-2.667 2.667-2.667h8c1.467 0 2.667 1.2 2.667 2.667z"></path>
<path fill="currentColor" d="M6.667 14.667v5.333c0 0.733-0.6 1.333-1.333 1.333s-1.333-0.6-1.333-1.333v-5.333c0-0.733 0.6-1.333 1.333-1.333s1.333 0.6 1.333 1.333z"></path>
<path fill="currentColor" d="M28 14.667v5.333c0 0.733-0.6 1.333-1.333 1.333s-1.333-0.6-1.333-1.333v-5.333c0-0.733 0.6-1.333 1.333-1.333s1.333 0.6 1.333 1.333z"></path>
<path fill="currentColor" opacity="0.4" d="M12.8 10.133h6.4c1.173 0 2.133-0.96 2.133-2.133 0-2.947-2.387-5.333-5.333-5.333s-5.333 2.387-5.333 5.333c0 1.173 0.96 2.133 2.133 2.133z"></path>
</svg>
