<!-- Generated by IcoMoon.io -->
<svg version="1.1" xmlns="http://www.w3.org/2000/svg" viewBox="0 0 32 32">
<path fill="currentColor" d="M27.854 14.040c-0.547 0-1-0.453-1-1v-3.827l-10.853-5.427-10.853 5.427v3.827c0 0.547-0.453 1-1 1s-1-0.453-1-1v-4.453c0-0.373 0.213-0.72 0.56-0.893l11.853-5.92c0.28-0.147 0.613-0.147 0.893 0l11.853 5.92c0.333 0.173 0.56 0.52 0.56 0.893v4.44c-0.013 0.56-0.467 1.013-1.013 1.013z"></path>
<path fill="currentColor" d="M16.001 30.333c-0.16 0-0.307-0.040-0.44-0.107l-11.853-5.92c-0.333-0.173-0.56-0.52-0.56-0.893v-4.44c0-0.547 0.453-1 1-1s1 0.453 1 1v3.827l10.853 5.427 10.853-5.427v-3.827c0-0.547 0.453-1 1-1s1 0.453 1 1v4.44c0 0.373-0.213 0.72-0.56 0.893l-11.853 5.92c-0.133 0.067-0.28 0.107-0.44 0.107z"></path>
<path fill="currentColor" opacity="0.4" d="M21.921 16c0-3.267-2.653-5.92-5.92-5.92s-5.92 2.653-5.92 5.92c0 2.933 2.147 5.36 4.947 5.827 0 0.040-0.013 0.067-0.013 0.093v7.413c0 0.547 0.453 1 1 1s1-0.453 1-1v-7.413c0-0.040-0.013-0.067-0.013-0.093 2.787-0.467 4.92-2.893 4.92-5.827z"></path>
</svg>
