<!-- Generated by IcoMoon.io -->
<svg version="1.1" xmlns="http://www.w3.org/2000/svg" viewBox="0 0 32 32">
<path fill="currentColor" d="M25.466 25.547c0.787-1.2 1.080-1.813 1.68-3.16-4.427-1.68-5.133-7.987-0.76-10.4-1.333-1.68-3.213-2.653-4.987-2.653-1.28 0-2.16 0.333-2.947 0.64-0.667 0.253-1.267 0.48-2.013 0.48-0.8 0-1.507-0.253-2.253-0.52-0.8-0.293-1.653-0.6-2.72-0.6-1.987 0-4.107 1.213-5.453 3.293-1.893 2.933-1.56 8.427 1.493 13.12 1.093 1.68 2.56 3.56 4.467 3.587 0.8 0.013 1.32-0.227 1.893-0.48 0.653-0.293 1.36-0.613 2.6-0.613 1.24-0.013 1.933 0.32 2.587 0.613 0.56 0.253 1.067 0.493 1.853 0.48 1.92-0.027 3.467-2.107 4.56-3.787z"></path>
<path fill="currentColor" opacity="0.4" d="M21.121 2.667c0.213 1.467-0.387 2.92-1.173 3.933-0.84 1.093-2.307 1.947-3.72 1.893-0.253-1.413 0.4-2.867 1.2-3.84 0.893-1.067 2.4-1.893 3.693-1.987z"></path>
</svg>
