<!-- Generated by IcoMoon.io -->
<svg version="1.1" xmlns="http://www.w3.org/2000/svg" viewBox="0 0 32 32">
<path fill="currentColor" opacity="0.4" d="M16 29.333c7.364 0 13.333-5.97 13.333-13.333s-5.97-13.333-13.333-13.333c-7.364 0-13.333 5.97-13.333 13.333s5.97 13.333 13.333 13.333z"></path>
<path fill="currentColor" d="M20 15.666c-0.36 0-0.72-0.2-0.893-0.547l-3.053-6.12h-0.093l-3.053 6.12c-0.24 0.493-0.84 0.693-1.347 0.453-0.493-0.253-0.693-0.853-0.453-1.347l3.333-6.667c0.173-0.333 0.52-0.547 0.893-0.547h1.333c0.373 0 0.72 0.213 0.893 0.547l3.333 6.667c0.253 0.493 0.053 1.093-0.453 1.347-0.133 0.053-0.293 0.093-0.44 0.093z"></path>
<path fill="currentColor" d="M16.001 25c-0.173 0-0.36-0.053-0.52-0.147l-6.667-4c-0.453-0.267-0.613-0.84-0.387-1.307l1.333-2.667c0.253-0.493 0.853-0.693 1.347-0.453 0.493 0.253 0.693 0.853 0.453 1.347l-0.92 1.84 5.36 3.213 5.36-3.213-0.92-1.84c-0.253-0.493-0.053-1.093 0.453-1.347 0.493-0.24 1.093-0.053 1.347 0.453l1.333 2.667c0.24 0.467 0.067 1.040-0.387 1.307l-6.667 4c-0.16 0.093-0.347 0.147-0.52 0.147z"></path>
</svg>
