<!-- Generated by IcoMoon.io -->
<svg version="1.1" xmlns="http://www.w3.org/2000/svg" viewBox="0 0 32 32">
<path fill="currentColor" opacity="0.4" d="M16 29.333c7.364 0 13.333-5.97 13.333-13.333s-5.97-13.333-13.333-13.333c-7.364 0-13.333 5.97-13.333 13.333s5.97 13.333 13.333 13.333z"></path>
<path fill="currentColor" d="M15.72 8.28l-2.84 4.733c-0.133 0.227 0.027 0.507 0.28 0.507h5.68c0.253 0 0.413-0.28 0.28-0.507l-2.84-4.733c-0.12-0.213-0.44-0.213-0.56 0z"></path>
<path fill="currentColor" d="M11.146 16.28l-2.84 4.733c-0.133 0.227 0.027 0.507 0.28 0.507h5.68c0.253 0 0.413-0.28 0.28-0.507l-2.84-4.733c-0.12-0.213-0.44-0.213-0.56 0z"></path>
<path fill="currentColor" d="M20.28 16.28l-2.84 4.733c-0.133 0.227 0.027 0.507 0.28 0.507h5.68c0.253 0 0.413-0.28 0.28-0.507l-2.84-4.733c-0.107-0.213-0.427-0.213-0.56 0z"></path>
</svg>
