<!-- Generated by IcoMoon.io -->
<svg version="1.1" xmlns="http://www.w3.org/2000/svg" viewBox="0 0 32 32">
<path fill="currentColor" d="M8.080 20.774l7.48-12.813c0.213-0.373 0.747-0.4 1-0.053l2.080 2.787c0.6 0.8 0.64 1.88 0.12 2.733l-4.453 7.133c-0.44 0.707-1.213 1.133-2.053 1.133h-3.653c-0.467-0.013-0.76-0.52-0.52-0.92z"></path>
<path fill="currentColor" d="M20.32 16.494l-2.56 4.267c-0.24 0.4 0.053 0.92 0.52 0.92h5.12c0.467 0 0.76-0.507 0.52-0.92l-2.56-4.267c-0.227-0.387-0.8-0.387-1.040 0z"></path>
<path fill="currentColor" opacity="0.4" d="M16 29.333c7.364 0 13.333-5.97 13.333-13.333s-5.97-13.333-13.333-13.333c-7.364 0-13.333 5.97-13.333 13.333s5.97 13.333 13.333 13.333z"></path>
</svg>
