<!-- Generated by IcoMoon.io -->
<svg version="1.1" xmlns="http://www.w3.org/2000/svg" viewBox="0 0 32 32">
<path fill="currentColor" d="M12 25h-8c-1.28 0-2.333-1.053-2.333-2.333v-13.333c0-1.28 1.053-2.333 2.333-2.333h6.667c2.76 0 5 2.24 5 5 0 1.373-0.56 2.613-1.453 3.52 1.653 0.813 2.787 2.52 2.787 4.48 0 2.76-2.24 5-5 5zM3.667 17v5.667c0 0.187 0.147 0.333 0.333 0.333h8c1.653 0 3-1.347 3-3s-1.347-3-3-3h-8.333zM3.667 15h7c1.653 0 3-1.347 3-3s-1.347-3-3-3h-6.667c-0.187 0-0.333 0.147-0.333 0.333v5.667z"></path>
<path fill="currentColor" opacity="0.4" d="M26.227 25h-2.227c-3.493 0-6.333-2.84-6.333-6.333s2.84-6.333 6.333-6.333c3.493 0 6.333 2.84 6.333 6.333 0 0.547-0.453 1-1 1h-9.547c0.453 1.907 2.173 3.333 4.213 3.333h2.227c0.547 0 1 0.453 1 1s-0.453 1-1 1zM19.787 17.667h8.44c-0.453-1.907-2.173-3.333-4.213-3.333s-3.773 1.427-4.227 3.333z"></path>
<path fill="currentColor" d="M26 11h-4c-0.547 0-1-0.453-1-1s0.453-1 1-1h4c0.547 0 1 0.453 1 1s-0.453 1-1 1z"></path>
</svg>
