<!-- Generated by IcoMoon.io -->
<svg version="1.1" xmlns="http://www.w3.org/2000/svg" viewBox="0 0 32 32">
<path fill="currentColor" d="M15.532 3.133l-7.067 7.067c-0.267 0.267-0.267 0.68 0 0.947l1.72 1.72c0.267 0.267 0.68 0.267 0.947 0l4.387-4.387c0.267-0.267 0.68-0.267 0.947 0l4.387 4.387c0.267 0.267 0.68 0.267 0.947 0l1.72-1.72c0.267-0.267 0.267-0.68 0-0.947l-7.053-7.053c-0.253-0.267-0.68-0.267-0.933-0.013z"></path>
<path fill="currentColor" d="M15.535 28.867l-7.053-7.053c-0.267-0.267-0.267-0.68 0-0.947l1.72-1.72c0.267-0.267 0.68-0.267 0.947 0l4.387 4.387c0.267 0.267 0.68 0.267 0.947 0l4.387-4.387c0.267-0.267 0.68-0.267 0.947 0l1.72 1.72c0.267 0.267 0.267 0.68 0 0.947l-7.053 7.053c-0.267 0.253-0.693 0.253-0.947 0z"></path>
<path fill="currentColor" opacity="0.4" d="M26.799 13.466l2.053 2.053c0.267 0.267 0.267 0.68 0 0.947l-2.053 2.067c-0.267 0.267-0.68 0.267-0.947 0l-2.053-2.053c-0.267-0.267-0.267-0.68 0-0.947l2.053-2.053c0.267-0.267 0.693-0.267 0.947-0.013z"></path>
<path fill="currentColor" opacity="0.4" d="M6.132 13.467l2.053 2.053c0.267 0.267 0.267 0.68 0 0.947l-2.053 2.067c-0.267 0.267-0.68 0.267-0.947 0l-2.053-2.053c-0.267-0.267-0.267-0.68 0-0.947l2.067-2.067c0.253-0.253 0.68-0.253 0.933 0z"></path>
<path fill="currentColor" opacity="0.4" d="M16.468 13.173l2.36 2.36c0.267 0.267 0.267 0.68 0 0.947l-2.36 2.36c-0.267 0.267-0.68 0.267-0.947 0l-2.36-2.36c-0.267-0.267-0.267-0.68 0-0.947l2.36-2.36c0.267-0.267 0.693-0.267 0.947 0z"></path>
</svg>
