<!-- Generated by IcoMoon.io -->
<svg version="1.1" xmlns="http://www.w3.org/2000/svg" viewBox="0 0 32 32">
<path fill="currentColor" d="M15.199 3.133l-6.853 6.867c-0.267 0.267-0.267 0.68 0 0.947l2.307 2.307c0.267 0.267 0.68 0.267 0.947 0l6.867-6.867c0.267-0.267 0.267-0.68 0-0.947l-2.307-2.307c-0.28-0.253-0.693-0.253-0.96 0z"></path>
<path fill="currentColor" opacity="0.4" d="M20.399 8.347l-12.053 12.053c-0.267 0.267-0.267 0.68 0 0.947l2.307 2.307c0.267 0.267 0.68 0.267 0.947 0l12.067-12.067c0.267-0.267 0.267-0.68 0-0.947l-2.307-2.307c-0.267-0.253-0.693-0.253-0.96 0.013z"></path>
<path fill="currentColor" d="M25.613 13.546l-12.067 12.067c-0.267 0.267-0.267 0.68 0 0.947l2.307 2.307c0.267 0.267 0.68 0.267 0.947 0l12.067-12.067c0.267-0.267 0.267-0.68 0-0.947l-2.307-2.307c-0.267-0.267-0.693-0.267-0.947 0z"></path>
<path fill="currentColor" opacity="0.4" d="M5.455 18.453l-2.307-2.307c-0.267-0.267-0.267-0.68 0-0.947l2.307-2.307c0.267-0.267 0.68-0.267 0.947 0l2.307 2.307c0.267 0.267 0.267 0.68 0 0.947l-2.307 2.307c-0.267 0.267-0.693 0.267-0.947 0z"></path>
</svg>
