<!-- Generated by IcoMoon.io -->
<svg version="1.1" xmlns="http://www.w3.org/2000/svg" viewBox="0 0 32 32">
<path fill="currentColor" opacity="0.4" d="M16 29.333c7.364 0 13.333-5.97 13.333-13.333s-5.97-13.333-13.333-13.333c-7.364 0-13.333 5.97-13.333 13.333s5.97 13.333 13.333 13.333z"></path>
<path fill="currentColor" d="M21.988 15.48c0.507-0.653 0.827-1.48 0.827-2.373 0-2.067-1.813-3.893-3.893-3.893h-1.173v-1.88c0-0.547-0.453-1-1-1s-1 0.453-1 1v1.893h-1.613v-1.893c0-0.547-0.453-1-1-1s-0.973 0.453-0.973 1v1.893h-2.76c-0.547 0-1 0.453-1 1s0.453 1 1 1h1.307v9.547h-1.307c-0.547 0-1 0.453-1 1s0.453 1 1 1h2.747v1.893c0 0.547 0.453 1 1 1s1-0.453 1-1v-1.893h1.613v1.893c0 0.547 0.453 1 1 1s1-0.453 1-1v-1.893h2.2c2.373 0 4.307-1.747 4.307-3.893 0-1.467-0.933-2.747-2.28-3.4zM14.454 11.227h4.48c1.067 0 1.893 1.013 1.893 1.893 0 1.040-0.853 1.893-1.893 1.893h-6.227v-3.787h1.747zM19.961 20.773h-7.253v-3.773h7.253c1.267 0 2.307 0.853 2.307 1.893s-1.040 1.88-2.307 1.88z"></path>
</svg>
