<!-- Generated by IcoMoon.io -->
<svg version="1.1" xmlns="http://www.w3.org/2000/svg" viewBox="0 0 32 32">
<path fill="currentColor" d="M22.667 14.667c-0.733 0-1.333-0.6-1.333-1.333v-1.333c0-2.667-1.333-4-4-4h-5.333c-2.667 0-4 1.333-4 4v8c0 2.667 1.333 4 4 4h8c2.667 0 4-1.333 4-4v-4c0-0.733-0.6-1.333-1.333-1.333zM13.333 12.333h2.667c0.547 0 1 0.453 1 1s-0.453 1-1 1h-2.667c-0.547 0-1-0.453-1-1s0.453-1 1-1zM18.667 19.667h-5.333c-0.547 0-1-0.453-1-1s0.453-1 1-1h5.333c0.547 0 1 0.453 1 1s-0.453 1-1 1z"></path>
<path fill="currentColor" opacity="0.4" d="M21.586 2.667h-11.16c-4.853 0-7.747 2.893-7.747 7.747v11.16c0 4.853 2.893 7.747 7.747 7.747h11.16c4.853 0 7.747-2.893 7.747-7.747v-11.16c0-4.853-2.893-7.747-7.747-7.747z"></path>
</svg>
