<!-- Generated by IcoMoon.io -->
<svg version="1.1" xmlns="http://www.w3.org/2000/svg" viewBox="0 0 32 32">
<path fill="currentColor" opacity="0.4" d="M22.667 4h-13.333c-2.213 0-4 1.787-4 4v1.12c0 1.027-0.16 2.040-0.493 3.013-0.507 1.507-1.92 2.533-3.507 2.533v2.667c1.587 0 3 1.013 3.507 2.533 0.32 0.973 0.493 2 0.493 3.013v1.12c0 2.213 1.787 4 4 4h13.333c2.213 0 4-1.787 4-4v-1.12c0-1.027 0.16-2.040 0.493-3.013 0.507-1.507 1.92-2.533 3.507-2.533v-2.667c-1.587 0-3-1.013-3.507-2.533-0.32-0.973-0.493-2-0.493-3.013v-1.12c0-2.213-1.787-4-4-4z"></path>
<path fill="currentColor" d="M16.893 22.56h-3.893c-0.547 0-1-0.453-1-1v-11.107c0-0.547 0.453-1 1-1h3.893c2.080 0 3.773 1.693 3.773 3.773 0 1.093-0.467 2.093-1.227 2.773 0.747 0.693 1.227 1.68 1.227 2.773 0 2.093-1.693 3.787-3.773 3.787zM14 20.56h2.893c0.987 0 1.773-0.8 1.773-1.773s-0.8-1.773-1.773-1.773h-2.893v3.547zM14 15h2.893c0.987 0 1.773-0.8 1.773-1.773s-0.8-1.773-1.773-1.773h-2.893v3.547z"></path>
</svg>
