<!-- Generated by IcoMoon.io -->
<svg version="1.1" xmlns="http://www.w3.org/2000/svg" viewBox="0 0 32 32">
<path fill="currentColor" opacity="0.36" d="M22.865 13.333c0.736 0 1.333-0.597 1.333-1.333s-0.597-1.333-1.333-1.333c-0.736 0-1.333 0.597-1.333 1.333s0.597 1.333 1.333 1.333z"></path>
<path fill="currentColor" opacity="0.36" d="M22.865 21.333c0.736 0 1.333-0.597 1.333-1.333s-0.597-1.333-1.333-1.333c-0.736 0-1.333 0.597-1.333 1.333s0.597 1.333 1.333 1.333z"></path>
<path fill="currentColor" opacity="0.36" d="M26.333 17.333c0.736 0 1.333-0.597 1.333-1.333s-0.597-1.333-1.333-1.333c-0.736 0-1.333 0.597-1.333 1.333s0.597 1.333 1.333 1.333z"></path>
<path fill="currentColor" opacity="0.36" d="M9.065 13.333c0.736 0 1.333-0.597 1.333-1.333s-0.597-1.333-1.333-1.333c-0.736 0-1.333 0.597-1.333 1.333s0.597 1.333 1.333 1.333z"></path>
<path fill="currentColor" opacity="0.36" d="M9.065 21.333c0.736 0 1.333-0.597 1.333-1.333s-0.597-1.333-1.333-1.333c-0.736 0-1.333 0.597-1.333 1.333s0.597 1.333 1.333 1.333z"></path>
<path fill="currentColor" opacity="0.36" d="M5.599 17.333c0.736 0 1.333-0.597 1.333-1.333s-0.597-1.333-1.333-1.333c-0.736 0-1.333 0.597-1.333 1.333s0.597 1.333 1.333 1.333z"></path>
<path fill="currentColor" opacity="0.36" d="M21.198 8.267c0.736 0 1.333-0.597 1.333-1.333s-0.597-1.333-1.333-1.333c-0.736 0-1.333 0.597-1.333 1.333s0.597 1.333 1.333 1.333z"></path>
<path fill="currentColor" opacity="0.36" d="M10.799 8.267c0.736 0 1.333-0.597 1.333-1.333s-0.597-1.333-1.333-1.333c-0.736 0-1.333 0.597-1.333 1.333s0.597 1.333 1.333 1.333z"></path>
<path fill="currentColor" opacity="0.36" d="M16.065 9.333c0.736 0 1.333-0.597 1.333-1.333s-0.597-1.333-1.333-1.333c-0.736 0-1.333 0.597-1.333 1.333s0.597 1.333 1.333 1.333z"></path>
<path fill="currentColor" opacity="0.36" d="M21.198 26.667c0.736 0 1.333-0.597 1.333-1.333s-0.597-1.333-1.333-1.333c-0.736 0-1.333 0.597-1.333 1.333s0.597 1.333 1.333 1.333z"></path>
<path fill="currentColor" opacity="0.36" d="M10.799 26.667c0.736 0 1.333-0.597 1.333-1.333s-0.597-1.333-1.333-1.333c-0.736 0-1.333 0.597-1.333 1.333s0.597 1.333 1.333 1.333z"></path>
<path fill="currentColor" opacity="0.36" d="M16.065 25.6c0.736 0 1.333-0.597 1.333-1.333s-0.597-1.333-1.333-1.333c-0.736 0-1.333 0.597-1.333 1.333s0.597 1.333 1.333 1.333z"></path>
<path fill="currentColor" d="M18.333 13.667c0.921 0 1.667-0.746 1.667-1.667s-0.746-1.667-1.667-1.667c-0.921 0-1.667 0.746-1.667 1.667s0.746 1.667 1.667 1.667z"></path>
<path fill="currentColor" d="M13.667 13.667c0.921 0 1.667-0.746 1.667-1.667s-0.746-1.667-1.667-1.667c-0.92 0-1.667 0.746-1.667 1.667s0.746 1.667 1.667 1.667z"></path>
<path fill="currentColor" d="M20.667 17.667c0.921 0 1.667-0.746 1.667-1.667s-0.746-1.667-1.667-1.667c-0.921 0-1.667 0.746-1.667 1.667s0.746 1.667 1.667 1.667z"></path>
<path fill="currentColor" d="M11.333 17.667c0.92 0 1.667-0.746 1.667-1.667s-0.746-1.667-1.667-1.667c-0.92 0-1.667 0.746-1.667 1.667s0.746 1.667 1.667 1.667z"></path>
<path fill="currentColor" d="M13.667 21.667c0.921 0 1.667-0.746 1.667-1.667s-0.746-1.667-1.667-1.667c-0.92 0-1.667 0.746-1.667 1.667s0.746 1.667 1.667 1.667z"></path>
<path fill="currentColor" d="M18.333 21.667c0.921 0 1.667-0.746 1.667-1.667s-0.746-1.667-1.667-1.667c-0.921 0-1.667 0.746-1.667 1.667s0.746 1.667 1.667 1.667z"></path>
<path fill="currentColor" opacity="0.16000000000000003" d="M15.999 4.44c-0.653 0-1.173-0.52-1.173-1.173s0.52-1.16 1.173-1.16c0.653 0 1.173 0.52 1.173 1.173s-0.52 1.16-1.173 1.16z"></path>
<path fill="currentColor" opacity="0.16000000000000003" d="M23 4.8c-0.56 0-1.013-0.453-1.013-1s0.453-1 1-1c0.547 0 1.013 0.453 1.013 1s-0.44 1-1 1z"></path>
<path fill="currentColor" opacity="0.16000000000000003" d="M9 4.8c-0.547 0-1-0.453-1-1s0.44-1 1-1h0.013c0.547 0 1 0.453 1 1s-0.453 1-1.013 1z"></path>
<path fill="currentColor" opacity="0.16000000000000003" d="M15.999 29.84c-0.653 0-1.173-0.52-1.173-1.173s0.52-1.173 1.173-1.173c0.653 0 1.173 0.52 1.173 1.173s-0.52 1.173-1.173 1.173z"></path>
<path fill="currentColor" opacity="0.16000000000000003" d="M23 29.133c-0.56 0-1.013-0.453-1.013-1s0.453-1 1-1c0.547 0 1.013 0.453 1.013 1s-0.44 1-1 1z"></path>
<path fill="currentColor" opacity="0.16000000000000003" d="M9 29.133c-0.547 0-1-0.453-1-1s0.44-1 1-1h0.013c0.547 0 1 0.453 1 1s-0.453 1-1.013 1z"></path>
<path fill="currentColor" opacity="0.16000000000000003" d="M2.067 17.173c-0.64 0-1.173-0.52-1.173-1.16v-0.013c0-0.64 0.52-1.173 1.173-1.173s1.16 0.52 1.16 1.173c0 0.653-0.52 1.173-1.16 1.173z"></path>
<path fill="currentColor" opacity="0.16000000000000003" d="M5 23.667c-0.547 0-1-0.453-1-1v-0.013c0-0.547 0.453-1 1-1s1 0.453 1 1c0 0.547-0.453 1.013-1 1.013z"></path>
<path fill="currentColor" opacity="0.16000000000000003" d="M5 10.346c-0.547 0-1-0.453-1-1s0.453-1 1-1c0.547 0 1 0.44 1 0.987v0.013c0 0.547-0.453 1-1 1z"></path>
<path fill="currentColor" opacity="0.16000000000000003" d="M29.999 17.173c-0.64 0-1.173-0.52-1.173-1.16v-0.013c0-0.64 0.52-1.173 1.173-1.173s1.173 0.52 1.173 1.173c0 0.653-0.533 1.173-1.173 1.173z"></path>
<path fill="currentColor" opacity="0.16000000000000003" d="M27.068 23.667c-0.547 0-1-0.44-1-1v-0.013c0-0.547 0.453-1 1-1s1 0.453 1 1c0 0.547-0.453 1.013-1 1.013z"></path>
<path fill="currentColor" opacity="0.16000000000000003" d="M27.068 10.346c-0.547 0-1-0.453-1-1s0.453-1 1-1c0.547 0 1 0.44 1 0.987v0.013c0 0.547-0.453 1-1 1z"></path>
</svg>
