<!-- Generated by IcoMoon.io -->
<svg version="1.1" xmlns="http://www.w3.org/2000/svg" viewBox="0 0 32 32">
<path fill="currentColor" opacity="0.4" d="M16 29.333c7.364 0 13.333-5.97 13.333-13.333s-5.97-13.333-13.333-13.333c-7.364 0-13.333 5.97-13.333 13.333s5.97 13.333 13.333 13.333z"></path>
<path fill="currentColor" d="M16.001 24.253c-4.547 0-8.253-3.707-8.253-8.253s3.707-8.253 8.253-8.253c1.8 0 3.52 0.573 4.96 1.653 0.44 0.333 0.533 0.96 0.2 1.4s-0.96 0.533-1.4 0.2c-1.093-0.813-2.387-1.253-3.76-1.253-3.44 0-6.253 2.8-6.253 6.253s2.8 6.253 6.253 6.253c1.973 0 3.787-0.907 4.987-2.48 0.333-0.44 0.96-0.52 1.4-0.187s0.52 0.96 0.187 1.4c-1.573 2.067-3.973 3.267-6.573 3.267z"></path>
<path fill="currentColor" d="M23.227 15.12c0.862 0 1.56-0.698 1.56-1.56s-0.698-1.56-1.56-1.56-1.56 0.698-1.56 1.56c0 0.862 0.698 1.56 1.56 1.56z"></path>
</svg>
