<!-- Generated by IcoMoon.io -->
<svg version="1.1" xmlns="http://www.w3.org/2000/svg" viewBox="0 0 32 32">
<path fill="currentColor" d="M19.065 13.507c0.373 1.467-0.28 2.827-1.4 3.52v2.64c0 0.92-0.747 1.667-1.667 1.667s-1.667-0.747-1.667-1.667v-2.64c-0.907-0.56-1.507-1.56-1.507-2.693 0-2.027 1.92-3.6 4.027-3.040 1.067 0.28 1.933 1.147 2.213 2.213z"></path>
<path fill="currentColor" opacity="0.4" d="M16 30.333c-7.907 0-14.333-6.427-14.333-14.333s6.427-14.333 14.333-14.333c6.32 0 11.813 4.053 13.693 10.067 0.16 0.533-0.133 1.093-0.653 1.253-0.533 0.16-1.093-0.133-1.253-0.653-1.613-5.187-6.347-8.667-11.773-8.667-6.8 0-12.333 5.533-12.333 12.333s5.533 12.333 12.333 12.333c5.413 0 10.147-3.467 11.76-8.627 0.16-0.533 0.72-0.813 1.253-0.653s0.813 0.733 0.653 1.253c-1.893 6-7.387 10.027-13.68 10.027z"></path>
</svg>
