<!-- Generated by IcoMoon.io -->
<svg version="1.1" xmlns="http://www.w3.org/2000/svg" viewBox="0 0 32 32">
<path fill="currentColor" opacity="0.4" d="M16 29.333c7.364 0 13.333-5.97 13.333-13.333s-5.97-13.333-13.333-13.333c-7.364 0-13.333 5.97-13.333 13.333s5.97 13.333 13.333 13.333z"></path>
<path fill="currentColor" d="M16 23.667h-5.333c-0.547 0-1-0.453-1-1v-13.333c0-0.547 0.453-1 1-1h5.333c4.227 0 7.667 3.44 7.667 7.667s-3.44 7.667-7.667 7.667zM11.667 21.667h4.333c3.12 0 5.667-2.547 5.667-5.667s-2.547-5.667-5.667-5.667h-4.333v11.333z"></path>
<path fill="currentColor" d="M24.694 14.333h-16.053c-0.547 0-1-0.453-1-1s0.453-1 1-1h16.053c0.547 0 1 0.453 1 1s-0.453 1-1 1z"></path>
<path fill="currentColor" d="M24.694 19.667h-16.053c-0.547 0-1-0.453-1-1s0.453-1 1-1h16.053c0.547 0 1 0.453 1 1s-0.453 1-1 1z"></path>
</svg>
