<!-- Generated by IcoMoon.io -->
<svg version="1.1" xmlns="http://www.w3.org/2000/svg" viewBox="0 0 32 32">
<path fill="currentColor" opacity="0.4" d="M9.493 4.667h11.84c5.333 0 8 3.333 8 8v3.333c0 6.667-4 11.333-11.333 11.333h-12.747l1.413-5.667h9.92c4.747 0 7.080-3 7.080-7.080v-0.253c0-2.333-1-4-4-4h-11.587l1.413-5.667z"></path>
<path fill="currentColor" d="M16.546 13.64h-10.28c-1.44 0-2.693 0.987-3.053 2.373l-0.333 1.36c-0.12 0.493 0.253 0.973 0.76 0.973h10.28c1.44 0 2.693-0.987 3.053-2.373l0.333-1.36c0.133-0.493-0.253-0.973-0.76-0.973z"></path>
</svg>
