<!-- Generated by IcoMoon.io -->
<svg version="1.1" xmlns="http://www.w3.org/2000/svg" viewBox="0 0 32 32">
<path fill="currentColor" d="M7.533 10.2l-3.733-3.733c-0.413-0.413-0.12-1.133 0.48-1.133h4.787c0.173 0 0.347 0.067 0.467 0.2l6.667 6.667c0.413 0.413 0.12 1.133-0.467 1.133h-4.387c-2.573 0-4.667 2.093-4.667 4.667s2.093 4.667 4.667 4.667h2l2.867 2.867c0.413 0.413 0.12 1.133-0.467 1.133h-4.387c-4.787 0-8.667-3.88-8.667-8.667 0-3.32 1.867-6.213 4.627-7.667l0.213-0.133z"></path>
<path fill="currentColor" opacity="0.4" d="M24.466 21.8l3.733 3.733c0.413 0.413 0.12 1.133-0.467 1.133h-4.787c-0.173 0-0.347-0.067-0.467-0.2l-6.667-6.667c-0.413-0.413-0.12-1.133 0.467-1.133h4.387c2.573 0 4.667-2.093 4.667-4.667s-2.093-4.667-4.667-4.667h-2l-2.867-2.867c-0.413-0.413-0.12-1.133 0.48-1.133h4.387c4.787 0 8.667 3.88 8.667 8.667 0 3.32-1.867 6.213-4.627 7.667l-0.24 0.133z"></path>
</svg>
