<!-- Generated by IcoMoon.io -->
<svg version="1.1" xmlns="http://www.w3.org/2000/svg" viewBox="0 0 32 32">
<path fill="currentColor" opacity="0.4" d="M16 29.333c7.364 0 13.333-5.97 13.333-13.333s-5.97-13.333-13.333-13.333c-7.364 0-13.333 5.97-13.333 13.333s5.97 13.333 13.333 13.333z"></path>
<path fill="currentColor" d="M22.453 17.693l-1.947-1.12c-0.44-0.253-0.44-0.893 0-1.16l1.947-1.12c0.84-0.48 1.12-1.56 0.64-2.4s-1.56-1.12-2.4-0.64l-1.947 1.12c-0.44 0.253-1-0.067-1-0.573v-2.24c0-0.96-0.787-1.76-1.76-1.76s-1.76 0.787-1.76 1.76v2.24c0 0.507-0.56 0.84-1 0.573l-1.947-1.12c-0.84-0.48-1.92-0.2-2.4 0.64s-0.2 1.92 0.64 2.4l1.947 1.12c0.44 0.253 0.44 0.893 0 1.16l-1.947 1.12c-0.84 0.48-1.12 1.56-0.64 2.4s1.56 1.12 2.4 0.64l1.947-1.12c0.44-0.253 1 0.067 1 0.573v2.24c0 0.96 0.787 1.76 1.76 1.76s1.76-0.787 1.76-1.76v-2.24c0-0.507 0.56-0.84 1-0.573l1.947 1.12c0.84 0.48 1.92 0.2 2.4-0.64 0.493-0.827 0.2-1.907-0.64-2.4z"></path>
</svg>
