<!-- Generated by IcoMoon.io -->
<svg version="1.1" xmlns="http://www.w3.org/2000/svg" viewBox="0 0 32 32">
<path fill="currentColor" d="M21.173 27.893c0.040 0.213-0.080 0.44-0.28 0.52-1.52 0.6-3.16 0.92-4.88 0.92-2.933 0-5.667-0.947-7.867-2.573-0.187-0.133-0.24-0.4-0.12-0.6 0.733-1.307 3.6-5.507 9.933-7.853 0.24-0.093 0.507 0.027 0.587 0.267 1.6 4.253 2.347 7.853 2.627 9.32z"></path>
<path fill="currentColor" d="M29.093 18.52c-0.613 3.28-2.453 6.133-5.027 8.080-0.28 0.213-0.68 0.053-0.747-0.28-0.28-1.44-0.96-4.547-2.267-8.24-0.093-0.28 0.093-0.587 0.387-0.627 3.32-0.4 6.227 0.24 7.32 0.533 0.227 0.080 0.373 0.307 0.333 0.533z"></path>
<path fill="currentColor" opacity="0.4" d="M28.787 15.76c-1.36-0.24-4.827-0.747-8.373-0.36-0.213 0.027-0.4-0.093-0.493-0.293-0.053-0.12-0.093-0.24-0.147-0.36-0.213-0.493-0.44-1-0.667-1.493-0.12-0.24 0-0.533 0.24-0.64 3.733-1.613 5.813-3.693 6.627-4.627 0.2-0.227 0.547-0.213 0.733 0.027 1.533 2.040 2.48 4.533 2.627 7.227 0.013 0.333-0.253 0.573-0.547 0.52z"></path>
<path fill="currentColor" d="M24.586 6.387c-0.693 0.84-2.64 2.84-6.333 4.307-0.213 0.093-0.467 0-0.587-0.213-1.707-3.093-3.52-5.693-4.36-6.867-0.2-0.293-0.040-0.68 0.307-0.747 0.773-0.133 1.573-0.2 2.4-0.2 3.227 0 6.2 1.147 8.507 3.067 0.2 0.16 0.227 0.453 0.067 0.653z"></path>
<path fill="currentColor" d="M14.693 11.787c-5.053 1.267-9.52 1.44-11.147 1.467-0.307 0-0.533-0.293-0.453-0.587 0.96-3.733 3.52-6.853 6.893-8.573 0.2-0.107 0.453-0.040 0.587 0.147 0.693 0.96 2.573 3.667 4.413 6.853 0.147 0.267 0.013 0.613-0.293 0.693z"></path>
<path fill="currentColor" opacity="0.4" d="M17.227 15.466c0.12 0.253-0.027 0.56-0.293 0.653-5.907 1.907-9.44 6.64-10.507 8.267-0.173 0.267-0.547 0.28-0.747 0.040-1.88-2.293-3.013-4.92-3.013-8.12v-0.24c0-0.267 0.213-0.48 0.48-0.467 1.68 0.067 7.16-0.16 12.853-1.8 0.213-0.067 0.453 0.040 0.547 0.24 0.24 0.48 0.467 0.947 0.68 1.427z"></path>
</svg>
