<!-- Generated by IcoMoon.io -->
<svg version="1.1" xmlns="http://www.w3.org/2000/svg" viewBox="0 0 32 32">
<path fill="currentColor" opacity="0.4" d="M15.999 8l-7.413 5.333-4.333-2.933c-0.773-0.52-0.787-1.64-0.027-2.187l5.107-3.68c0.453-0.32 1.067-0.333 1.52-0.027l5.147 3.493z"></path>
<path fill="currentColor" opacity="0.4" d="M27.747 10.4l-4.333 2.933-7.413-5.333 5.147-3.48c0.467-0.307 1.067-0.307 1.52 0.027l5.107 3.68c0.76 0.533 0.747 1.653-0.027 2.173z"></path>
<path fill="currentColor" opacity="0.4" d="M16 18.667l-5.92 4-5.867-4.213c-0.747-0.547-0.733-1.667 0.027-2.187l4.333-2.933 7.427 5.333z"></path>
<path fill="currentColor" opacity="0.4" d="M27.747 16.267c0.773 0.52 0.787 1.64 0.027 2.187l-2.44 1.76-3.413 2.453-5.92-4 7.413-5.333 4.333 2.933z"></path>
<path fill="currentColor" d="M25.333 20.213v3.96c0 0.52-0.307 0.987-0.773 1.213l-8 3.693c-0.36 0.16-0.76 0.16-1.12 0l-8-3.693c-0.467-0.213-0.773-0.693-0.773-1.213v-3.96l3.413 2.453 5.92-4 5.92 4 3.413-2.453z"></path>
</svg>
