<!-- Generated by IcoMoon.io -->
<svg version="1.1" xmlns="http://www.w3.org/2000/svg" viewBox="0 0 32 32">
<path fill="currentColor" opacity="0.4" d="M10.573 7.307l4.173 4.173c0.693 0.693 1.827 0.693 2.52 0l4.173-4.173c1.12-1.12 0.333-3.053-1.267-3.053h-8.347c-1.587 0-2.387 1.933-1.253 3.053z"></path>
<path fill="currentColor" opacity="0.4" d="M10.573 24.693l4.173-4.173c0.693-0.693 1.827-0.693 2.52 0l4.173 4.173c1.12 1.12 0.333 3.053-1.267 3.053h-8.347c-1.587 0-2.387-1.933-1.253-3.053z"></path>
<path fill="currentColor" d="M2.879 15.24l3.053-4.8c0.48-0.76 1.547-0.88 2.187-0.24l4.8 4.8c0.547 0.547 0.547 1.44 0 1.987l-4.8 4.8c-0.64 0.64-1.693 0.52-2.187-0.24l-3.053-4.8c-0.28-0.453-0.28-1.040 0-1.507z"></path>
<path fill="currentColor" d="M29.119 15.24l-3.053-4.8c-0.48-0.76-1.547-0.88-2.187-0.24l-4.8 4.8c-0.547 0.547-0.547 1.44 0 1.987l4.8 4.8c0.64 0.64 1.693 0.52 2.187-0.24l3.053-4.8c0.28-0.453 0.28-1.040 0-1.507z"></path>
</svg>
