<!-- Generated by IcoMoon.io -->
<svg version="1.1" xmlns="http://www.w3.org/2000/svg" viewBox="0 0 32 32">
<path fill="currentColor" opacity="0.4" d="M16 29.333c7.364 0 13.333-5.97 13.333-13.333s-5.97-13.333-13.333-13.333c-7.364 0-13.333 5.97-13.333 13.333s5.97 13.333 13.333 13.333z"></path>
<path fill="currentColor" d="M22 9.667h-12c-0.547 0-1 0.453-1 1s0.453 1 1 1h5.667v3.333h-5.667c-0.547 0-1 0.453-1 1s0.453 1 1 1h6.667c0.547 0 1-0.453 1-1v-4.333h3.333v8.667h-11c-0.547 0-1 0.453-1 1s0.453 1 1 1h12c0.547 0 1-0.453 1-1v-10.667c0-0.547-0.453-1-1-1z"></path>
</svg>
