<!-- Generated by IcoMoon.io -->
<svg version="1.1" xmlns="http://www.w3.org/2000/svg" viewBox="0 0 32 32">
<path fill="currentColor" opacity="0.4" d="M16 29.333c7.364 0 13.333-5.97 13.333-13.333s-5.97-13.333-13.333-13.333c-7.364 0-13.333 5.97-13.333 13.333s5.97 13.333 13.333 13.333z"></path>
<path fill="currentColor" d="M21 17c0.547 0 1-0.453 1-1s-0.453-1-1-1h-9.667v-0.333c0-1.653 1.347-3 3-3h6.667c0.547 0 1-0.453 1-1s-0.453-1-1-1h-6.667c-2.76 0-5 2.24-5 5v2.667c0 2.76 2.24 5 5 5h6.667c0.547 0 1-0.453 1-1s-0.453-1-1-1h-6.667c-1.653 0-3-1.347-3-3v-0.333h9.667z"></path>
</svg>
