<!-- Generated by IcoMoon.io -->
<svg version="1.1" xmlns="http://www.w3.org/2000/svg" viewBox="0 0 32 32">
<path fill="currentColor" d="M22.639 10.787l-0.227 0.573-6.293 17.64h-0.24l-6.307-17.667-0.213-0.533c0.080-0.2 0.187-0.387 0.293-0.52l4.813-5.773c0.84-1.013 2.227-1.013 3.067 0l4.813 5.773c0.107 0.12 0.213 0.32 0.293 0.507z"></path>
<path fill="currentColor" opacity="0.4" d="M15.879 29c-0.32-0.013-0.627-0.093-0.867-0.24l-7.093-4.040c-0.693-0.4-1.12-1.36-0.973-2.133l2.293-11.427c0.027-0.107 0.067-0.227 0.12-0.36l0.213 0.533 6.307 17.667z"></path>
<path fill="currentColor" opacity="0.4" d="M24.080 24.72l-7.093 4.040c-0.24 0.147-0.547 0.227-0.867 0.24l6.293-17.64 0.227-0.573c0.053 0.133 0.093 0.267 0.12 0.373l2.293 11.427c0.147 0.773-0.28 1.733-0.973 2.133z"></path>
</svg>
