<!-- Generated by IcoMoon.io -->
<svg version="1.1" xmlns="http://www.w3.org/2000/svg" viewBox="0 0 32 32">
<path fill="currentColor" opacity="0.4" d="M23.333 15.32c-0.147 0.12-0.293 0.213-0.467 0.293l-1.453 0.733-4.093 2.040c-0.733 0.373-1.92 0.373-2.64 0l-4.093-2.040-1.453-0.733c-0.16-0.093-0.307-0.173-0.467-0.293-1.413-0.987-1.667-2.787-0.533-4.213l5.56-6.933c0.347-0.427 0.76-0.747 1.187-0.933 0.72-0.347 1.52-0.347 2.227 0 0.427 0.187 0.853 0.507 1.187 0.933l5.56 6.933c1.147 1.44 0.893 3.24-0.52 4.213z"></path>
<path fill="currentColor" d="M23.333 15.32c-0.147 0.12-0.293 0.213-0.467 0.293l-1.453 0.733-5.413-4.067-5.413 4.080-1.453-0.733c-0.16-0.093-0.307-0.173-0.467-0.293 0.053-0.253 0.187-0.48 0.413-0.64l5.8-4.36v-7.080c0.72-0.347 1.52-0.347 2.227 0v7.080l5.8 4.36c0.227 0.16 0.36 0.373 0.427 0.627z"></path>
<path fill="currentColor" d="M11.693 19.24l2.147 0.96c1.373 0.613 2.947 0.613 4.333 0l2.147-0.96c1.92-0.853 3.693 1.467 2.36 3.093l-4.613 5.64c-1.133 1.387-2.987 1.387-4.133 0l-4.6-5.64c-1.347-1.627 0.427-3.947 2.36-3.093z"></path>
</svg>
