<!-- Generated by IcoMoon.io -->
<svg version="1.1" xmlns="http://www.w3.org/2000/svg" viewBox="0 0 32 32">
<path fill="currentColor" opacity="0.4" d="M9.199 12.133l6.36-2.827c0.28-0.12 0.6-0.12 0.867 0l6.373 2.827c0.56 0.253 1.080-0.427 0.693-0.907l-6.667-8.147c-0.453-0.56-1.2-0.56-1.653 0l-6.667 8.147c-0.387 0.48 0.133 1.16 0.693 0.907z"></path>
<path fill="currentColor" opacity="0.4" d="M9.199 19.867l6.373 2.827c0.28 0.12 0.6 0.12 0.867 0l6.373-2.827c0.56-0.253 1.080 0.427 0.693 0.907l-6.667 8.147c-0.453 0.56-1.2 0.56-1.653 0l-6.667-8.147c-0.4-0.48 0.107-1.16 0.68-0.907z"></path>
<path fill="currentColor" d="M15.706 12.653l-5.507 2.747c-0.493 0.24-0.493 0.947 0 1.187l5.507 2.747c0.187 0.093 0.413 0.093 0.6 0l5.507-2.747c0.493-0.24 0.493-0.947 0-1.187l-5.507-2.747c-0.2-0.093-0.413-0.093-0.6 0z"></path>
</svg>
