<!-- Generated by IcoMoon.io -->
<svg version="1.1" xmlns="http://www.w3.org/2000/svg" viewBox="0 0 32 32">
<path fill="currentColor" opacity="0.4" d="M21.586 2.667h-11.16c-4.853 0-7.747 2.893-7.747 7.747v11.16c0 4.853 2.893 7.747 7.747 7.747h11.16c4.853 0 7.747-2.893 7.747-7.747v-11.16c0-4.853-2.893-7.747-7.747-7.747z"></path>
<path fill="currentColor" d="M18.561 12.374l0.067 3.933 3.507-0.053c0.253 0 0.44 0.227 0.4 0.467l-0.467 2.547c-0.040 0.187-0.2 0.32-0.387 0.333l-3 0.053 0.16 9.667-4 0.067-0.16-9.667-2.267 0.040c-0.227 0-0.4-0.173-0.4-0.4l-0.040-2.533c0-0.227 0.173-0.4 0.4-0.4l2.267-0.040-0.067-4.333c-0.040-2.213 1.72-4.027 3.933-4.067l3.6-0.053c0.227 0 0.4 0.173 0.4 0.4l0.053 3.2c0 0.227-0.173 0.4-0.4 0.4l-3.2 0.053c-0.227-0.013-0.4 0.173-0.4 0.387z"></path>
</svg>
