<!-- Generated by IcoMoon.io -->
<svg version="1.1" xmlns="http://www.w3.org/2000/svg" viewBox="0 0 32 32">
<path fill="currentColor" opacity="0.4" d="M16 29.333c7.364 0 13.333-5.97 13.333-13.333s-5.97-13.333-13.333-13.333c-7.364 0-13.333 5.97-13.333 13.333s5.97 13.333 13.333 13.333z"></path>
<path fill="currentColor" d="M16 8h-2.667c-1.467 0-2.667 1.2-2.667 2.667s1.2 2.667 2.667 2.667h2.667v-5.333z"></path>
<path fill="currentColor" opacity="0.4" d="M16 13.333h-2.667c-1.467 0-2.667 1.2-2.667 2.667s1.2 2.667 2.667 2.667h2.667v-5.333z"></path>
<path fill="currentColor" d="M16 18.667h-2.667c-1.467 0-2.667 1.2-2.667 2.667s1.2 2.667 2.667 2.667c1.467 0 2.667-1.2 2.667-2.667v-2.667z"></path>
<path fill="currentColor" opacity="0.4" d="M16 8h2.667c1.467 0 2.667 1.2 2.667 2.667s-1.2 2.667-2.667 2.667h-2.667v-5.333z"></path>
<path fill="currentColor" d="M18.667 13.333c1.467 0 2.667 1.2 2.667 2.667s-1.2 2.667-2.667 2.667c-1.467 0-2.667-1.2-2.667-2.667s1.2-2.667 2.667-2.667z"></path>
</svg>
