<!-- Generated by IcoMoon.io -->
<svg version="1.1" xmlns="http://www.w3.org/2000/svg" viewBox="0 0 32 32">
<path fill="currentColor" d="M16 2.667h-4.44c-2.453 0-4.44 1.987-4.44 4.44s1.987 4.44 4.44 4.44h4.44v-8.88z"></path>
<path fill="currentColor" opacity="0.4" d="M16 11.56h-4.44c-2.453 0-4.44 1.987-4.44 4.44s1.987 4.44 4.44 4.44h4.44v-8.88z"></path>
<path fill="currentColor" d="M16 20.44h-4.44c-2.453 0-4.44 1.987-4.44 4.44s1.987 4.44 4.44 4.44c2.453 0 4.44-1.987 4.44-4.44v-4.44z"></path>
<path fill="currentColor" opacity="0.4" d="M16 2.667h4.44c2.453 0 4.44 1.987 4.44 4.44s-1.987 4.44-4.44 4.44h-4.44v-8.88z"></path>
<path fill="currentColor" d="M20.44 11.56c2.453 0 4.44 1.987 4.44 4.44s-1.987 4.44-4.44 4.44c-2.453 0-4.44-1.987-4.44-4.44s1.987-4.44 4.44-4.44z"></path>
</svg>
