<!-- Generated by IcoMoon.io -->
<svg version="1.1" xmlns="http://www.w3.org/2000/svg" viewBox="0 0 32 32">
<path fill="currentColor" opacity="0.4" d="M21.586 2.667h-11.16c-4.853 0-7.747 2.893-7.747 7.747v11.16c0 4.853 2.893 7.747 7.747 7.747h11.16c4.853 0 7.747-2.893 7.747-7.747v-11.16c0-4.853-2.893-7.747-7.747-7.747z"></path>
<path fill="currentColor" d="M14.667 7.333v2.667c0 0.373-0.293 0.667-0.667 0.667h-2c-0.733 0-1.333 0.6-1.333 1.333v2c0 0.373-0.293 0.667-0.667 0.667h-2.667c-0.373 0-0.667-0.293-0.667-0.667v-2c0-2.947 2.387-5.333 5.333-5.333h2c0.373 0 0.667 0.293 0.667 0.667z"></path>
<path fill="currentColor" d="M17.333 24.667v-2.667c0-0.373 0.293-0.667 0.667-0.667h2c0.733 0 1.333-0.6 1.333-1.333v-2c0-0.373 0.293-0.667 0.667-0.667h2.667c0.373 0 0.667 0.293 0.667 0.667v2c0 2.947-2.387 5.333-5.333 5.333h-2c-0.373 0-0.667-0.293-0.667-0.667z"></path>
</svg>
