<!-- Generated by IcoMoon.io -->
<svg version="1.1" xmlns="http://www.w3.org/2000/svg" viewBox="0 0 32 32">
<path fill="currentColor" d="M28.721 20c-1.707 5.413-6.76 9.333-12.72 9.333-5.947 0-10.987-3.893-12.707-9.28h0.773l5.267-0.053v-4.32c0-1.227 1.533-1.8 2.333-0.867l4.333 5.187 4.333-5.187c0.8-0.933 2.333-0.36 2.333 0.867v4.32h6.053z"></path>
<path fill="currentColor" opacity="0.4" d="M29.333 16c0 1.4-0.213 2.733-0.613 4h-6.053v-4.32c0-1.227-1.533-1.8-2.333-0.867l-4.333 5.187-4.333-5.187c-0.8-0.933-2.333-0.36-2.333 0.867v4.32l-5.267 0.053h-0.773c-0.4-1.28-0.627-2.64-0.627-4.053 0-7.36 5.973-13.333 13.333-13.333s13.333 5.973 13.333 13.333z"></path>
</svg>
