<!-- Generated by IcoMoon.io -->
<svg version="1.1" xmlns="http://www.w3.org/2000/svg" viewBox="0 0 32 32">
<path fill="currentColor" d="M28 2.667h-16c-0.733 0-1.333 0.6-1.333 1.333v4c0 0.733 0.6 1.333 1.333 1.333h16c0.733 0 1.333-0.6 1.333-1.333v-4c0-0.733-0.6-1.333-1.333-1.333z"></path>
<path fill="currentColor" d="M14.667 22.667h-4c-0.733 0-1.333 0.6-1.333 1.333v4c0 0.733 0.6 1.333 1.333 1.333h4c0.733 0 1.333-0.6 1.333-1.333v-4c0-0.733-0.6-1.333-1.333-1.333z"></path>
<path fill="currentColor" opacity="0.4" d="M8 12.667h-4c-0.733 0-1.333 0.6-1.333 1.333v4c0 0.733 0.6 1.333 1.333 1.333h4c0.733 0 1.333-0.6 1.333-1.333v-4c0-0.733-0.6-1.333-1.333-1.333z"></path>
<path fill="currentColor" opacity="0.4" d="M22.667 12.854h-8.667c-0.733 0-1.333 0.6-1.333 1.333v3.627c0 0.733 0.6 1.333 1.333 1.333h8.667c0.733 0 1.333-0.6 1.333-1.333v-3.627c0-0.733-0.6-1.333-1.333-1.333z"></path>
</svg>
