<!-- Generated by IcoMoon.io -->
<svg version="1.1" xmlns="http://www.w3.org/2000/svg" viewBox="0 0 32 32">
<path fill="currentColor" d="M16.267 7.827c-0.093 0-0.187 0-0.267 0.013v-5.16c0.093-0.013 0.173-0.013 0.267-0.013 3.013 0 5.6 0.92 7.72 2.48 0.667 0.48 0.72 1.453 0.133 2.027l-1.853 1.813c-0.453 0.44-1.147 0.52-1.667 0.16-1-0.693-2.427-1.32-4.333-1.32z"></path>
<path fill="currentColor" d="M29.067 16.293c0 4.067-1.453 7.48-3.973 9.813-2.2 2.040-5.227 3.227-8.827 3.227-0.093 0-0.173 0-0.267-0.013v-5.16c0.093 0.013 0.173 0.013 0.267 0.013 1.987 0 3.493-0.547 4.627-1.333 1.773-1.24 2.573-3.093 2.72-4.32h-6.013c-0.733 0-1.333-0.6-1.333-1.333v-2.28c0-0.733 0.6-1.333 1.333-1.333h10.067c0.68 0 1.253 0.507 1.32 1.187 0.053 0.467 0.080 0.96 0.080 1.533z"></path>
<path fill="currentColor" opacity="0.4" d="M8.666 13.36c-0.267 0.827-0.427 1.72-0.427 2.64s0.16 1.8 0.44 2.64c1.040 3.133 3.92 5.413 7.32 5.52v5.16c-5.093-0.093-9.48-3.053-11.627-7.333h-0.013c-0.907-1.813-1.427-3.84-1.427-5.987s0.52-4.173 1.427-5.987c2.147-4.28 6.533-7.24 11.64-7.333v5.16c-3.147 0.093-5.827 2.040-7.053 4.8-0.107 0.24-0.2 0.48-0.28 0.72z"></path>
</svg>
