<!-- Generated by IcoMoon.io -->
<svg version="1.1" xmlns="http://www.w3.org/2000/svg" viewBox="0 0 32 32">
<path fill="currentColor" opacity="0.4" d="M10.267 20.947l-4.147 7.053-4.24-7.053h8.387z"></path>
<path fill="currentColor" d="M16 11.213l-5.733 9.733h-8.387l9.88-16.947 4.24 7.213z"></path>
<path fill="currentColor" opacity="0.4" d="M20.24 4l-4.24 7.213-4.24-7.213h8.48z"></path>
<path fill="currentColor" d="M30.12 20.84c0 0-0.027 0.040-0.080 0.107h-8.307l-5.733-9.733 4.24-7.213c0 0 9.813 16.84 9.88 16.84z"></path>
<path fill="currentColor" opacity="0.4" d="M30.041 20.947c-0.56 0.88-4.16 7.053-4.16 7.053l-4.147-7.053h8.307z"></path>
<path fill="currentColor" d="M25.88 28h-19.76l4.147-7.053h11.467l4.147 7.053z"></path>
<path fill="currentColor" opacity="0.4" d="M21.732 20.947h-11.467l5.733-9.733 5.733 9.733z"></path>
</svg>
