<!-- Generated by IcoMoon.io -->
<svg version="1.1" xmlns="http://www.w3.org/2000/svg" viewBox="0 0 32 32">
<path fill="none" stroke="currentColor" stroke-linejoin="round" stroke-linecap="round" stroke-miterlimit="10" stroke-width="2" d="M10 23.2v-14.4"></path>
<path fill="none" stroke="currentColor" stroke-linejoin="round" stroke-linecap="round" stroke-miterlimit="10" stroke-width="2" d="M10 13.008h12"></path>
<path fill="currentColor" opacity="0.4" d="M16 32c8.837 0 16-7.163 16-16s-7.163-16-16-16c-8.837 0-16 7.163-16 16s7.163 16 16 16z"></path>
<path fill="currentColor" d="M21.999 24.4c-0.656 0-1.2-0.544-1.2-1.2v-14.4c0-0.656 0.544-1.2 1.2-1.2s1.2 0.544 1.2 1.2v14.4c0 0.656-0.544 1.2-1.2 1.2z"></path>
<path fill="currentColor" d="M22 20.192h-12c-0.656 0 0.133-0.544 0.133-1.2s-0.789-1.2-0.133-1.2h12c0.656 0 1.2 0.544 1.2 1.2s-0.544 1.2-1.2 1.2z"></path>
</svg>
