<?xml version="1.0" encoding="UTF-8"?>
<svg id="Capa_1" data-name="Capa 1" xmlns="http://www.w3.org/2000/svg" viewBox="0 0 24 24">
  <path d="M8.5,18.75c0-1.79-1.46-3.25-3.25-3.25s-3.25,1.46-3.25,3.25,1.46,3.25,3.25,3.25,3.25-1.46,3.25-3.25Z" fill="currentColor" stroke-width="0"/>
  <path d="M8,5c0-1.66-1.34-3-3-3s-3,1.34-3,3,1.34,3,3,3,3-1.34,3-3Z" fill="currentColor" stroke-width="0"/>
  <path d="M22,5c0-1.66-1.34-3-3-3s-3,1.34-3,3,1.34,3,3,3,3-1.34,3-3Z" fill="currentColor" stroke-width="0"/>
  <path d="M18.69,7.06c-.08-.03-.17-.04-.25-.04-.31,0-.61.19-.72.51-.75,2.17-2.8,3.62-5.09,3.62h-3.55s-.01,0-.02,0c-1.25,0-2.4.48-3.28,1.26v-6.62c0-.42-.34-.76-.76-.76s-.76.34-.76.76v11.22c0,.42.34.76.76.76s.76-.34.76-.76v-1.85c.41-1.48,1.77-2.51,3.29-2.49h3.53s.02.01.03.01c2.95,0,5.57-1.87,6.54-4.65.14-.4-.07-.84-.48-.96Z" fill="currentColor" isolation="isolate" opacity=".4" stroke-width="0"/>
</svg>