<?xml version="1.0" encoding="UTF-8"?>
<svg id="Capa_1" data-name="Capa 1" xmlns="http://www.w3.org/2000/svg" viewBox="0 0 24 24">
  <path d="M13.8,21.8c4.4-.8,7.8-4.5,8.1-9.1.5-5.5-3.6-10.3-9.2-10.7C6.1,1.5,2.3,6.8,2.3,6.8M2.3,6.8l.3-4.5M2.3,6.8l2,.1,2.4.2" fill="none" stroke="currentColor" stroke-linecap="round" stroke-linejoin="round" stroke-width="1.5"/>
  <path d="M2,11.3c-.81,5.14,4.95,11.94,11.8,10.5" fill="none" stroke="currentColor" stroke-linecap="round" stroke-linejoin="round" stroke-width="1.5"/>
  <path d="M15.4,15.8l-3.2-1.8c-.5-.3-1-1.1-1-1.7v-4.1" fill="none" stroke="currentColor" stroke-linecap="round" stroke-linejoin="round" stroke-width="1.5"/>
  <path opacity="0.4" d="M11.9707 22C17.4936 22 21.9707 17.5228 21.9707 12C21.9707 6.47715 17.4936 2 11.9707 2C6.44786 2 1.9707 6.47715 1.9707 12C1.9707 17.5228 6.44786 22 11.9707 22Z" fill="currentColor"/>
</svg>