<!-- Generated by IcoMoon.io -->
<svg version="1.1" xmlns="http://www.w3.org/2000/svg" viewBox="0 0 32 32">
<path fill="currentColor" opacity="0.4" d="M5.493 2.667h21.027c0.8 0 1.413 0.693 1.32 1.48l-2.4 21.627c-0.053 0.533-0.44 0.987-0.96 1.133l-8.107 2.32c-0.24 0.067-0.493 0.067-0.733 0l-8.107-2.32c-0.52-0.147-0.893-0.6-0.96-1.133l-2.4-21.627c-0.093-0.787 0.52-1.48 1.32-1.48z"></path>
<path fill="currentColor" d="M22.747 8.667c-0.187-0.213-0.453-0.333-0.747-0.333l-12-0.027c-0.547 0-1 0.44-1 1 0 0.547 0.44 1 1 1l10.88 0.027-0.373 3.333h-9.84c-0.547 0-1 0.453-1 1s0.453 1 1 1h9.627l-0.547 4.893-3.747 1.067-3.84-1.093-0.533-2.107c-0.133-0.533-0.68-0.867-1.213-0.733s-0.867 0.68-0.733 1.213l0.667 2.667c0.080 0.347 0.347 0.627 0.693 0.72l4.667 1.333c0.093 0.027 0.187 0.040 0.28 0.040s0.187-0.013 0.28-0.040l4.667-1.333c0.387-0.107 0.68-0.44 0.72-0.853l1.333-12c0.040-0.28-0.053-0.56-0.24-0.773z"></path>
</svg>
