<!-- Generated by IcoMoon.io -->
<svg version="1.1" xmlns="http://www.w3.org/2000/svg" viewBox="0 0 32 32">
<path fill="currentColor" opacity="0.4" d="M5.493 2.667h21.027c0.8 0 1.413 0.693 1.32 1.48l-2.4 21.627c-0.053 0.533-0.44 0.987-0.96 1.133l-8.107 2.32c-0.24 0.067-0.493 0.067-0.733 0l-8.107-2.32c-0.52-0.147-0.893-0.6-0.96-1.133l-2.4-21.627c-0.093-0.787 0.52-1.48 1.32-1.48z"></path>
<path fill="currentColor" d="M15.666 24c-0.093 0-0.187-0.013-0.28-0.040l-4.667-1.333c-0.427-0.12-0.72-0.52-0.72-0.96v-2.667c0-0.547 0.453-1 1-1s1 0.453 1 1v1.907l3.667 1.053 3.733-1.067 0.493-4.893h-8.893c-0.507 0-0.933-0.387-1-0.893l-0.667-6c-0.027-0.28 0.053-0.56 0.253-0.773 0.187-0.213 0.467-0.333 0.747-0.333h11.333c0.547 0 1 0.453 1 1s-0.453 1-1 1h-10.213l0.44 4h9.107c0.28 0 0.547 0.12 0.747 0.333 0.187 0.213 0.28 0.493 0.253 0.773l-0.667 6.667c-0.040 0.413-0.32 0.747-0.72 0.867l-4.667 1.333c-0.093 0.013-0.187 0.027-0.28 0.027z"></path>
</svg>
