<!-- Generated by IcoMoon.io -->
<svg version="1.1" xmlns="http://www.w3.org/2000/svg" viewBox="0 0 32 32">
<path fill="currentColor" opacity="0.4" d="M21.546 13.333c0 0-0.2 1.333-4.333 6.667-3.88 5.027 1.733 8.853 2.4 9.293 0.040 0.027 0.080 0.027 0.133 0 0.907-0.56 11-7.053 1.8-15.96z"></path>
<path fill="currentColor" d="M18.346 10.387c0-3.067-1.2-5.867-2.4-7.467-0.4-0.4-1.067-0.267-1.2 0.267-0.533 2-2.133 6.267-6 11.333-4.933 6.4-0.4 13.333 4.267 14.667 2.533 0.667-0.667-1.333-1.067-5.467-0.4-5.2 6.4-9.067 6.4-13.333z"></path>
</svg>
