<!-- Generated by IcoMoon.io -->
<svg version="1.1" xmlns="http://www.w3.org/2000/svg" viewBox="0 0 32 32">
<path fill="currentColor" opacity="0.4" d="M27.013 7c-1.107 0-2-0.893-2-2s0.893-2 2-2h0.013c1.107 0 2 0.893 2 2s-0.907 2-2.013 2z"></path>
<path fill="currentColor" opacity="0.4" d="M5.013 29c-1.107 0-2-0.893-2-2s0.893-2 2-2h0.013c1.107 0 2 0.893 2 2s-0.907 2-2.013 2z"></path>
<path fill="currentColor" d="M8.040 21.867c-0.333 0-0.667-0.173-0.853-0.48-0.987-1.613-1.52-3.48-1.52-5.387 0-5.693 4.64-10.333 10.333-10.333 1.88 0 3.72 0.507 5.32 1.467 0.467 0.28 0.627 0.893 0.347 1.373-0.28 0.467-0.893 0.627-1.373 0.347-1.293-0.773-2.773-1.187-4.28-1.187-4.6 0-8.333 3.733-8.333 8.333 0 1.533 0.427 3.040 1.227 4.347 0.293 0.467 0.147 1.080-0.333 1.373-0.173 0.107-0.36 0.147-0.533 0.147z"></path>
<path fill="currentColor" d="M16 26.334c-1.92 0-3.787-0.533-5.4-1.52-0.467-0.293-0.613-0.907-0.333-1.373 0.293-0.467 0.907-0.613 1.373-0.333 1.307 0.8 2.813 1.227 4.36 1.227 4.6 0 8.333-3.733 8.333-8.333 0-1.533-0.427-3.040-1.227-4.347-0.293-0.467-0.147-1.080 0.333-1.373 0.467-0.28 1.080-0.147 1.373 0.333 0.987 1.627 1.52 3.48 1.52 5.4 0 5.68-4.64 10.32-10.333 10.32z"></path>
</svg>
