<!-- Generated by IcoMoon.io -->
<svg version="1.1" xmlns="http://www.w3.org/2000/svg" viewBox="0 0 32 32">
<path fill="currentColor" opacity="0.4" d="M21.587 2.667h-11.173c-4.853 0-7.747 2.893-7.747 7.747v11.16c0 4.853 2.893 7.747 7.747 7.747h11.16c4.853 0 7.747-2.893 7.747-7.747v-11.16c0.013-4.853-2.88-7.747-7.733-7.747z"></path>
<path fill="currentColor" d="M14.521 10.4c-0.133-0.387-0.493-0.667-0.907-0.68-0.427-0.027-0.8 0.213-0.96 0.587l-4.707 10.573c-0.227 0.507 0 1.093 0.507 1.32s1.093 0 1.32-0.507l1.307-2.933h4.107l0.947 2.84c0.133 0.413 0.533 0.68 0.947 0.68 0.107 0 0.213-0.013 0.32-0.053 0.52-0.173 0.8-0.747 0.627-1.267l-3.507-10.56zM11.974 16.76l1.467-3.293 1.093 3.293h-2.56z"></path>
<path fill="currentColor" d="M21.799 13.24c-0.547 0-1 0.453-1 1v7.053c0 0.547 0.453 1 1 1s1-0.453 1-1v-7.053c0-0.56-0.453-1-1-1z"></path>
<path fill="currentColor" d="M23.026 10.2c-0.067-0.16-0.16-0.307-0.293-0.427-0.36-0.373-0.96-0.493-1.453-0.293-0.16 0.067-0.307 0.16-0.427 0.293-0.12 0.12-0.213 0.267-0.293 0.427-0.067 0.16-0.093 0.333-0.093 0.507 0 0.187 0.027 0.347 0.093 0.52 0.067 0.16 0.173 0.307 0.293 0.427 0.253 0.253 0.587 0.387 0.947 0.387 0.173 0 0.347-0.027 0.507-0.093s0.307-0.173 0.427-0.293c0.133-0.12 0.227-0.267 0.293-0.427s0.107-0.333 0.107-0.52c0-0.173-0.040-0.347-0.107-0.507z"></path>
</svg>
