<!-- Generated by IcoMoon.io -->
<svg version="1.1" xmlns="http://www.w3.org/2000/svg" viewBox="0 0 32 32">
<path fill="currentColor" opacity="0.4" d="M14.653 3.466l-8.667 5.093c-0.813 0.48-1.32 1.36-1.32 2.293v10.28c0 0.947 0.507 1.813 1.32 2.293l8.667 5.093c0.84 0.493 1.867 0.493 2.707 0l8.667-5.093c0.813-0.48 1.32-1.36 1.32-2.293v-10.28c0-0.947-0.507-1.813-1.32-2.293l-8.667-5.093c-0.84-0.493-1.88-0.493-2.707 0z"></path>
<path fill="currentColor" d="M23.187 19.147l-3.48-2.093 0.347-0.347c0.387-0.387 0.387-1.027 0-1.413s-1.027-0.387-1.413 0l-0.693 0.693-2.4-1.44 0.507-0.507c0.387-0.387 0.387-1.027 0-1.413s-1.027-0.387-1.413 0l-0.867 0.867-2.493-1.493 4.72-2.84 6.147 3.693c0.48 0.28 1.093 0.133 1.373-0.347 0.28-0.467 0.133-1.093-0.347-1.373l-6.667-4c-0.32-0.187-0.72-0.187-1.027 0l-6.667 4c-0.307 0.187-0.48 0.507-0.48 0.853s0.187 0.68 0.48 0.853l3.48 2.093-0.347 0.347c-0.387 0.387-0.387 1.027 0 1.413 0.2 0.2 0.453 0.293 0.707 0.293s0.507-0.093 0.707-0.293l0.693-0.693 2.4 1.44-0.507 0.507c-0.387 0.387-0.387 1.027 0 1.413 0.2 0.2 0.453 0.293 0.707 0.293s0.507-0.093 0.707-0.293l0.867-0.867 2.48 1.493-4.707 2.853-6.147-3.693c-0.48-0.28-1.093-0.133-1.373 0.347s-0.133 1.093 0.347 1.373l6.667 4c0.16 0.093 0.333 0.147 0.52 0.147s0.36-0.053 0.52-0.147l6.667-4c0.307-0.187 0.48-0.507 0.48-0.853s-0.2-0.693-0.493-0.867z"></path>
</svg>
