<!-- Generated by IcoMoon.io -->
<svg version="1.1" xmlns="http://www.w3.org/2000/svg" viewBox="0 0 32 32">
<path fill="currentColor" opacity="0.4" d="M5.493 2.667h21.027c0.8 0 1.413 0.693 1.32 1.48l-2.4 21.627c-0.053 0.533-0.44 0.987-0.96 1.133l-8.107 2.32c-0.24 0.067-0.493 0.067-0.733 0l-8.107-2.32c-0.52-0.147-0.893-0.6-0.96-1.133l-2.4-21.627c-0.093-0.787 0.52-1.48 1.32-1.48z"></path>
<path fill="currentColor" d="M14.16 22.32c-0.093 0-0.187-0.013-0.28-0.040l-4.16-1.2c-0.533-0.16-0.84-0.707-0.68-1.24 0.147-0.533 0.707-0.827 1.24-0.68l2.88 0.827v-10.64c0-0.547 0.453-1 1-1s1 0.453 1 1v11.96c0 0.32-0.147 0.613-0.4 0.8-0.173 0.133-0.387 0.213-0.6 0.213z"></path>
<path fill="currentColor" d="M17.2 22.333c-0.453 0-0.853-0.307-0.973-0.76-0.133-0.533 0.187-1.080 0.733-1.213l4.040-1.013v-2.267l-3.053 0.44c-0.293 0.040-0.573-0.040-0.8-0.24-0.213-0.187-0.347-0.467-0.347-0.76v-6.587c0-0.493 0.36-0.92 0.853-0.987l4.2-0.6c0.547-0.080 1.053 0.307 1.133 0.853s-0.307 1.053-0.853 1.133l-3.333 0.467v4.573l3.053-0.44c0.293-0.040 0.573 0.040 0.8 0.24 0.213 0.187 0.347 0.467 0.347 0.76v4.2c0 0.453-0.307 0.853-0.76 0.973l-4.8 1.2c-0.080 0.013-0.16 0.027-0.24 0.027z"></path>
</svg>
