<!-- Generated by IcoMoon.io -->
<svg version="1.1" xmlns="http://www.w3.org/2000/svg" viewBox="0 0 32 32">
<path fill="currentColor" d="M16 30.147c-0.387 0-0.773-0.093-1.133-0.293l-1.973-0.947c-0.493-0.24-0.707-0.84-0.467-1.333s0.827-0.707 1.333-0.467l2.013 0.973c0.147 0.080 0.28 0.080 0.373 0.027l10.667-5.92c0.107-0.053 0.173-0.173 0.173-0.293v-11.76c0-0.12-0.067-0.227-0.173-0.293l-10.667-5.92c-0.107-0.053-0.227-0.053-0.32 0l-10.667 5.92c-0.107 0.053-0.173 0.173-0.173 0.293v11.76c0 0.12 0.067 0.227 0.173 0.293l3.347 1.853c0.52 0.293 1.133 0.28 1.653-0.027s0.827-0.84 0.827-1.44l0.013-10.573c0-0.547 0.453-1 1-1s1 0.453 1 1l-0.013 10.573c0 1.307-0.68 2.493-1.813 3.16s-2.493 0.68-3.64 0.040l-3.347-1.853c-0.747-0.413-1.2-1.2-1.2-2.040v-11.76c0-0.84 0.453-1.627 1.2-2.040l10.667-5.92c0.707-0.4 1.56-0.4 2.267 0l10.667 5.92c0.747 0.413 1.2 1.2 1.2 2.040v11.76c0 0.84-0.453 1.627-1.2 2.040l-10.667 5.92c-0.347 0.2-0.733 0.307-1.12 0.307z"></path>
<path fill="currentColor" opacity="0.4" d="M20.333 22.333h-2.333c-1.84 0-3.333-1.493-3.333-3.333 0-0.547 0.453-1 1-1s1 0.453 1 1c0 0.733 0.6 1.333 1.333 1.333h2.333c0.733 0 1.333-0.6 1.333-1.333s-0.6-1.333-1.333-1.333h-2.333c-1.84 0-3.333-1.493-3.333-3.333s1.493-3.333 3.333-3.333h2.333c1.84 0 3.333 1.493 3.333 3.333 0 0.547-0.453 1-1 1s-1-0.453-1-1c0-0.733-0.6-1.333-1.333-1.333h-2.333c-0.733 0-1.333 0.6-1.333 1.333s0.6 1.333 1.333 1.333h2.333c1.84 0 3.333 1.493 3.333 3.333s-1.493 3.333-3.333 3.333z"></path>
</svg>
