<!-- Generated by IcoMoon.io -->
<svg version="1.1" xmlns="http://www.w3.org/2000/svg" viewBox="0 0 32 32">
<path fill="currentColor" opacity="0.6" d="M25.333 9.547v11.747c0 0.573-0.187 1.12-0.507 1.573l-0.613-0.32-10.88-6.547 11.387-6.32 0.6-0.307c0.013 0.053 0.013 0.12 0.013 0.173z"></path>
<path fill="currentColor" d="M25.32 9.373l-0.6 0.307-11.387 6.32 2.667-12 0.187-0.907c0.387 0.027 0.773 0.133 1.133 0.333l6.667 3.8c0.787 0.453 1.28 1.253 1.333 2.147z"></path>
<path fill="currentColor" opacity="0.4" d="M16 4l-2.667 12 2.467 12.307 0.067 0.4c-0.507-0.013-1-0.173-1.413-0.48l-6.667-4.76c-0.707-0.507-1.12-1.307-1.12-2.173v-11.747c0-0.96 0.507-1.84 1.347-2.32l6.667-3.8c0.467-0.267 0.987-0.387 1.507-0.333l-0.187 0.907z"></path>
<path fill="currentColor" d="M24.827 22.867c-0.173 0.227-0.373 0.427-0.613 0.6l-6.667 4.76c-0.493 0.36-1.093 0.52-1.68 0.48l-0.067-0.4-2.467-12.307 10.88 6.547 0.613 0.32z"></path>
</svg>
