<!-- Generated by IcoMoon.io -->
<svg version="1.1" xmlns="http://www.w3.org/2000/svg" viewBox="0 0 32 32">
<path fill="currentColor" opacity="0.4" d="M16 29.333c7.364 0 13.333-5.97 13.333-13.333s-5.97-13.333-13.333-13.333c-7.364 0-13.333 5.97-13.333 13.333s5.97 13.333 13.333 13.333z"></path>
<path fill="currentColor" d="M17.041 8.48c0.88 0 1.52 0.827 1.293 1.68l-2.387 8.907h4.040c0.827 0 1.467 0.747 1.307 1.573l-0.2 1.12c-0.12 0.64-0.667 1.093-1.307 1.093h-7.387c-0.88 0-1.52-0.853-1.28-1.693l3.48-12.187c0.080-0.28 0.347-0.48 0.64-0.48h1.8v-0.013z"></path>
<path fill="currentColor" d="M9.761 17.693c-0.467 0-0.88-0.333-0.973-0.8-0.107-0.547 0.24-1.067 0.787-1.173l10.267-2.053c0.533-0.107 1.067 0.24 1.173 0.787s-0.24 1.067-0.787 1.173l-10.267 2.053c-0.067 0.013-0.133 0.013-0.2 0.013z"></path>
</svg>
