<!-- Generated by IcoMoon.io -->
<svg version="1.1" xmlns="http://www.w3.org/2000/svg" viewBox="0 0 32 32">
<path fill="currentColor" opacity="0.4" d="M16 29.333c7.364 0 13.333-5.97 13.333-13.333s-5.97-13.333-13.333-13.333c-7.364 0-13.333 5.97-13.333 13.333s5.97 13.333 13.333 13.333z"></path>
<path fill="currentColor" d="M14.333 20.334c-0.547 0-1-0.453-1-1v-2.773l-3.56-2.133v4.907c0 0.547-0.453 1-1 1s-1-0.453-1-1v-6.667c0-0.36 0.2-0.693 0.507-0.867s0.693-0.173 1 0.013l5.56 3.333c0.307 0.187 0.48 0.507 0.48 0.853v3.333c0.013 0.547-0.44 1-0.987 1z"></path>
<path fill="currentColor" d="M23.227 20.334c-0.547 0-1-0.453-1-1v-4.907l-3.56 2.133v2.773c0 0.547-0.453 1-1 1s-1-0.453-1-1v-3.333c0-0.347 0.187-0.68 0.48-0.853l5.56-3.333c0.307-0.187 0.693-0.187 1-0.013 0.32 0.173 0.507 0.507 0.507 0.867v6.667c0.013 0.547-0.44 1-0.987 1z"></path>
</svg>
