<!-- Generated by IcoMoon.io -->
<svg version="1.1" xmlns="http://www.w3.org/2000/svg" viewBox="0 0 32 32">
<path fill="currentColor" opacity="0.4" d="M7.574 24.587v2.467c0 1.027 1.093 1.667 1.987 1.16l2.48-1.4c1.253 0.36 2.573 0.547 3.947 0.547 7.36 0 13.333-5.533 13.333-12.347s-5.973-12.347-13.333-12.347c-7.36 0-13.333 5.533-13.333 12.347 0.013 3.853 1.933 7.307 4.92 9.573z"></path>
<path fill="currentColor" d="M14.694 12.747l-3.387 4.027c-0.413 0.493 0.040 1.227 0.667 1.080l2.68-0.653c0.173-0.040 0.347-0.013 0.493 0.067l1.347 0.787c0.28 0.16 0.64 0.107 0.84-0.147l3.333-3.987c0.413-0.493-0.053-1.24-0.68-1.067l-2.427 0.627c-0.16 0.040-0.333 0.027-0.48-0.053l-1.573-0.827c-0.267-0.16-0.613-0.093-0.813 0.147z"></path>
</svg>
