<!-- Generated by IcoMoon.io -->
<svg version="1.1" xmlns="http://www.w3.org/2000/svg" viewBox="0 0 32 32">
<path fill="currentColor" opacity="0.4" d="M16 29.333c7.364 0 13.333-5.97 13.333-13.333s-5.97-13.333-13.333-13.333c-7.364 0-13.333 5.97-13.333 13.333s5.97 13.333 13.333 13.333z"></path>
<path fill="currentColor" d="M19.334 14.333l-0.547 0.28h-0.013l-6.24 3.227 1.427-4.453 4.107-1.853 1.267 2.8z"></path>
<path fill="currentColor" d="M18.068 11.533l-4.107 1.853 2.040-6.387 2.067 4.533z"></path>
<path fill="currentColor" d="M13.96 13.387l-1.427 4.453-4.533-1.507 5.333-2.667 0.627-0.28z"></path>
<path fill="currentColor" d="M24.001 16.333l-6 3.333-0.413-0.133-0.12-0.040-4.933-1.653 6.24-3.227h0.013l5.213 1.72z"></path>
<path fill="currentColor" d="M17.587 19.533l-0.253 0.8-1.333 4-3.333-6.24-0.133-0.253 5.053 1.693z"></path>
</svg>
