<!-- Generated by IcoMoon.io -->
<svg version="1.1" xmlns="http://www.w3.org/2000/svg" viewBox="0 0 32 32">
<path fill="currentColor" opacity="0.6" d="M21.813 24.653c-0.013 0.013-0.013 0.027-0.013 0.027-1.587 1.68-3.493 3.267-5.8 4.653 0 0-11.787-5.893-13.2-19.893 4.147 13.427 13.2 3.893 13.2 3.893 9.013 3.867 6.027 10.853 5.813 11.32z"></path>
<path fill="currentColor" opacity="0.4" d="M21.813 24.653c0.213-0.467 3.2-7.453-5.813-11.32-1.333-8 5.427-9.413 5.427-9.413l0.787-0.16h0.013c2.32 0.547 4.707 1.467 7.107 2.907 0 0-0 10-7.52 17.987z"></path>
<path fill="currentColor" d="M22.213 3.76l-0.787 0.16c0 0-6.76 1.413-5.427 9.413 0 0-9.053 9.533-13.2-3.893v-0.013c-0.080-0.88-0.133-1.813-0.133-2.76 0 0 8.96-5.373 19.547-2.907z"></path>
</svg>
