<!-- Generated by IcoMoon.io -->
<svg version="1.1" xmlns="http://www.w3.org/2000/svg" viewBox="0 0 32 32">
<path fill="currentColor" d="M16 6.333c-0.133 0-0.267-0.013-0.387-0.040-0.133-0.027-0.253-0.067-0.373-0.107-0.12-0.053-0.24-0.12-0.347-0.187-0.107-0.080-0.213-0.16-0.307-0.253-0.373-0.373-0.587-0.88-0.587-1.413s0.213-1.040 0.587-1.413c0.093-0.093 0.2-0.173 0.307-0.253 0.107-0.067 0.227-0.133 0.347-0.173 0.12-0.053 0.24-0.093 0.373-0.12 0.64-0.133 1.333 0.080 1.8 0.547 0.373 0.373 0.587 0.88 0.587 1.413s-0.213 1.040-0.587 1.413c-0.373 0.373-0.893 0.587-1.413 0.587z"></path>
<path fill="currentColor" d="M16 12.333c-0.133 0-0.267-0.013-0.387-0.040-0.133-0.027-0.253-0.067-0.373-0.107-0.12-0.053-0.24-0.12-0.347-0.187-0.107-0.080-0.213-0.16-0.307-0.253-0.373-0.373-0.587-0.88-0.587-1.413s0.213-1.040 0.587-1.413c0.093-0.093 0.2-0.173 0.307-0.253 0.107-0.067 0.227-0.133 0.347-0.173 0.12-0.053 0.24-0.093 0.373-0.12 0.253-0.053 0.52-0.053 0.773 0 0.133 0.027 0.253 0.067 0.373 0.12 0.12 0.040 0.24 0.107 0.347 0.173 0.107 0.080 0.213 0.16 0.307 0.253 0.373 0.373 0.587 0.88 0.587 1.413s-0.213 1.040-0.587 1.413c-0.093 0.093-0.2 0.173-0.307 0.253-0.107 0.067-0.227 0.133-0.347 0.187-0.12 0.040-0.24 0.080-0.373 0.107-0.12 0.027-0.253 0.040-0.387 0.040z"></path>
<path fill="currentColor" d="M16 17.667c-0.133 0-0.267-0.013-0.387-0.040-0.133-0.027-0.253-0.067-0.373-0.107-0.12-0.053-0.24-0.12-0.347-0.187-0.107-0.080-0.213-0.16-0.307-0.253s-0.173-0.187-0.253-0.307c-0.067-0.107-0.133-0.227-0.187-0.347-0.040-0.12-0.080-0.24-0.107-0.373-0.027-0.12-0.040-0.253-0.040-0.387 0-0.533 0.213-1.040 0.587-1.413 0.093-0.093 0.2-0.173 0.307-0.253 0.107-0.067 0.227-0.133 0.347-0.187 0.12-0.040 0.24-0.080 0.373-0.107 0.64-0.133 1.333 0.080 1.8 0.547 0.373 0.373 0.587 0.88 0.587 1.413 0 0.133-0.013 0.267-0.040 0.387-0.027 0.133-0.067 0.253-0.12 0.373-0.040 0.12-0.107 0.24-0.173 0.347-0.080 0.12-0.16 0.213-0.253 0.307s-0.2 0.173-0.307 0.253c-0.107 0.067-0.227 0.133-0.347 0.187-0.12 0.040-0.24 0.080-0.373 0.107-0.12 0.027-0.253 0.040-0.387 0.040z"></path>
<path fill="currentColor" opacity="0.36" d="M16 22.333c-0.347 0-0.693-0.147-0.947-0.387-0.24-0.253-0.387-0.6-0.387-0.947s0.147-0.693 0.387-0.947c0.307-0.307 0.773-0.44 1.2-0.36 0.093 0.013 0.173 0.040 0.253 0.080 0.080 0.027 0.16 0.067 0.227 0.12 0.080 0.053 0.147 0.107 0.213 0.16 0.24 0.253 0.387 0.6 0.387 0.947s-0.147 0.693-0.387 0.947c-0.067 0.053-0.133 0.107-0.213 0.16-0.067 0.053-0.147 0.093-0.227 0.12-0.080 0.040-0.16 0.067-0.253 0.080-0.080 0.013-0.173 0.027-0.253 0.027z"></path>
<path fill="currentColor" opacity="0.16000000000000003" d="M16 26.667c-0.133 0-0.267-0.027-0.387-0.080s-0.227-0.12-0.32-0.213c-0.093-0.093-0.173-0.2-0.213-0.32-0.053-0.12-0.080-0.253-0.080-0.387 0-0.267 0.107-0.52 0.293-0.707 0.093-0.093 0.2-0.16 0.32-0.213 0.253-0.107 0.52-0.107 0.773 0 0.12 0.053 0.227 0.12 0.32 0.213s0.16 0.2 0.213 0.32c0.053 0.12 0.080 0.253 0.080 0.387s-0.027 0.267-0.080 0.387c-0.053 0.12-0.12 0.227-0.213 0.32s-0.2 0.16-0.32 0.213c-0.133 0.053-0.253 0.080-0.387 0.080z"></path>
<path fill="currentColor" opacity="0.04000000000000001" d="M16 29.427c-0.173 0-0.347-0.067-0.467-0.2-0.133-0.12-0.2-0.293-0.2-0.467s0.067-0.347 0.2-0.467c0.24-0.253 0.693-0.253 0.933 0 0.133 0.12 0.2 0.293 0.2 0.467s-0.067 0.347-0.2 0.467c-0.12 0.133-0.293 0.2-0.467 0.2z"></path>
<path fill="currentColor" d="M4.667 12.333c-0.533 0-1.040-0.213-1.413-0.587s-0.587-0.88-0.587-1.413c0-0.52 0.213-1.040 0.587-1.413 0.733-0.747 2.080-0.747 2.827 0 0.373 0.373 0.587 0.893 0.587 1.413 0 0.533-0.213 1.040-0.587 1.413-0.093 0.093-0.2 0.173-0.307 0.253-0.107 0.067-0.227 0.133-0.347 0.173-0.12 0.053-0.24 0.093-0.373 0.12-0.12 0.027-0.253 0.040-0.387 0.040z"></path>
<path fill="currentColor" d="M27.333 12.333c-0.52 0-1.040-0.213-1.413-0.587s-0.587-0.893-0.587-1.413c0-0.133 0.013-0.267 0.040-0.387 0.027-0.133 0.067-0.253 0.107-0.373 0.053-0.12 0.12-0.24 0.187-0.347 0.080-0.107 0.16-0.213 0.253-0.307s0.2-0.173 0.307-0.253c0.107-0.067 0.227-0.133 0.347-0.173 0.12-0.053 0.24-0.093 0.373-0.12 0.253-0.053 0.52-0.053 0.773 0 0.133 0.027 0.253 0.067 0.373 0.12 0.12 0.040 0.24 0.107 0.347 0.173 0.107 0.080 0.213 0.16 0.307 0.253s0.173 0.2 0.253 0.307c0.067 0.107 0.133 0.227 0.173 0.347 0.053 0.12 0.093 0.24 0.12 0.373 0.027 0.12 0.040 0.253 0.040 0.387 0 0.533-0.213 1.040-0.587 1.413-0.093 0.093-0.2 0.173-0.307 0.253-0.107 0.067-0.227 0.133-0.347 0.187-0.12 0.040-0.24 0.080-0.373 0.107s-0.253 0.040-0.387 0.040z"></path>
<path fill="currentColor" opacity="0.36" d="M27.333 17c-0.080 0-0.173-0.013-0.253-0.027-0.093-0.013-0.173-0.040-0.253-0.080-0.080-0.027-0.16-0.067-0.24-0.12-0.067-0.040-0.133-0.107-0.2-0.16-0.053-0.067-0.12-0.133-0.16-0.2-0.053-0.080-0.093-0.16-0.12-0.24-0.040-0.080-0.067-0.16-0.080-0.24-0.013-0.093-0.027-0.173-0.027-0.267 0-0.347 0.147-0.693 0.387-0.947 0.067-0.053 0.133-0.107 0.2-0.16 0.080-0.053 0.16-0.093 0.24-0.12 0.080-0.040 0.16-0.067 0.253-0.080 0.16-0.040 0.333-0.040 0.507 0 0.093 0.013 0.173 0.040 0.253 0.080 0.080 0.027 0.16 0.067 0.227 0.12 0.080 0.053 0.147 0.107 0.213 0.16 0.24 0.253 0.387 0.6 0.387 0.947 0 0.093-0.013 0.173-0.027 0.267-0.013 0.080-0.040 0.16-0.080 0.24-0.027 0.080-0.067 0.16-0.12 0.24-0.053 0.067-0.107 0.133-0.16 0.2-0.067 0.053-0.133 0.12-0.213 0.16-0.067 0.053-0.147 0.093-0.227 0.12-0.080 0.040-0.16 0.067-0.253 0.080-0.080 0.013-0.173 0.027-0.253 0.027z"></path>
<path fill="currentColor" opacity="0.36" d="M4.667 17c-0.347 0-0.693-0.147-0.947-0.387-0.24-0.253-0.387-0.6-0.387-0.947s0.147-0.693 0.387-0.947c0.373-0.373 0.96-0.493 1.453-0.28 0.173 0.067 0.307 0.16 0.44 0.28 0.24 0.253 0.387 0.6 0.387 0.947s-0.147 0.693-0.387 0.947c-0.253 0.24-0.6 0.387-0.947 0.387z"></path>
<path fill="currentColor" opacity="0.16000000000000003" d="M27.333 20.667c-0.267 0-0.52-0.107-0.707-0.293s-0.293-0.44-0.293-0.707c0-0.133 0.027-0.253 0.080-0.387 0.053-0.12 0.12-0.227 0.213-0.32 0.28-0.28 0.72-0.373 1.093-0.213 0.12 0.053 0.227 0.12 0.32 0.213s0.16 0.2 0.213 0.32c0.053 0.133 0.080 0.253 0.080 0.387 0 0.267-0.107 0.52-0.293 0.707-0.093 0.093-0.2 0.16-0.32 0.213-0.133 0.053-0.253 0.080-0.387 0.080z"></path>
<path fill="currentColor" opacity="0.16000000000000003" d="M4.667 20.666c-0.267 0-0.52-0.107-0.707-0.293-0.093-0.093-0.173-0.2-0.213-0.32-0.053-0.12-0.080-0.253-0.080-0.387s0.027-0.253 0.080-0.387c0.040-0.12 0.12-0.227 0.213-0.32 0.36-0.373 1.040-0.373 1.413 0 0.093 0.093 0.16 0.2 0.213 0.32 0.053 0.133 0.080 0.253 0.080 0.387s-0.027 0.267-0.080 0.387c-0.053 0.12-0.12 0.227-0.213 0.32-0.187 0.187-0.44 0.293-0.707 0.293z"></path>
<path fill="currentColor" opacity="0.04000000000000001" d="M27.333 24c-0.093 0-0.173-0.013-0.253-0.053-0.080-0.027-0.16-0.080-0.213-0.147-0.133-0.12-0.2-0.293-0.2-0.467s0.067-0.347 0.2-0.467c0.24-0.253 0.693-0.253 0.933 0 0.133 0.12 0.2 0.293 0.2 0.467s-0.067 0.347-0.2 0.467c-0.12 0.133-0.293 0.2-0.467 0.2z"></path>
<path fill="currentColor" opacity="0.04000000000000001" d="M4.667 24c-0.173 0-0.347-0.067-0.467-0.2-0.133-0.12-0.2-0.293-0.2-0.467s0.067-0.347 0.2-0.467c0.24-0.253 0.693-0.253 0.933 0 0.133 0.12 0.2 0.293 0.2 0.467s-0.067 0.347-0.2 0.467c-0.12 0.133-0.293 0.2-0.467 0.2z"></path>
<path fill="currentColor" d="M10.333 9.333c-0.133 0-0.267-0.013-0.387-0.040-0.133-0.027-0.253-0.067-0.373-0.12-0.133-0.040-0.24-0.107-0.347-0.173-0.12-0.080-0.213-0.16-0.307-0.253-0.373-0.373-0.587-0.893-0.587-1.413s0.213-1.040 0.587-1.413c0.747-0.747 2.080-0.747 2.827 0 0.373 0.373 0.587 0.88 0.587 1.413s-0.213 1.040-0.587 1.413c-0.093 0.093-0.2 0.173-0.307 0.253-0.107 0.067-0.227 0.133-0.347 0.173-0.12 0.053-0.24 0.093-0.373 0.12-0.12 0.027-0.253 0.040-0.387 0.040z"></path>
<path fill="currentColor" d="M21.667 9.333c-0.133 0-0.267-0.013-0.387-0.040-0.133-0.027-0.253-0.067-0.373-0.12-0.12-0.040-0.24-0.107-0.347-0.173-0.107-0.080-0.213-0.16-0.307-0.253s-0.173-0.2-0.253-0.307c-0.067-0.107-0.133-0.227-0.187-0.347-0.040-0.12-0.080-0.24-0.107-0.373-0.027-0.12-0.040-0.253-0.040-0.387 0-0.52 0.213-1.040 0.587-1.413 0.093-0.093 0.2-0.173 0.307-0.253 0.107-0.067 0.227-0.133 0.347-0.173 0.12-0.053 0.24-0.093 0.373-0.12 0.253-0.053 0.52-0.053 0.773 0 0.133 0.027 0.253 0.067 0.373 0.12 0.12 0.040 0.24 0.107 0.347 0.173 0.107 0.080 0.213 0.16 0.307 0.253 0.373 0.373 0.587 0.893 0.587 1.413 0 0.133-0.013 0.267-0.040 0.387-0.027 0.133-0.067 0.253-0.107 0.373-0.053 0.12-0.12 0.24-0.187 0.347-0.080 0.107-0.16 0.213-0.253 0.307s-0.2 0.173-0.307 0.253c-0.107 0.067-0.227 0.133-0.347 0.173-0.12 0.053-0.24 0.093-0.373 0.12-0.12 0.027-0.253 0.040-0.387 0.040z"></path>
<path fill="currentColor" d="M10.333 15c-0.133 0-0.267-0.013-0.387-0.040-0.133-0.027-0.253-0.067-0.373-0.107-0.12-0.053-0.24-0.12-0.347-0.187-0.12-0.080-0.213-0.16-0.307-0.253-0.373-0.373-0.587-0.893-0.587-1.413 0-0.533 0.213-1.040 0.587-1.413 0.747-0.747 2.080-0.747 2.827 0 0.373 0.373 0.587 0.88 0.587 1.413s-0.213 1.040-0.587 1.413c-0.373 0.373-0.893 0.587-1.413 0.587z"></path>
<path fill="currentColor" d="M21.667 15c-0.133 0-0.267-0.013-0.387-0.040-0.133-0.027-0.253-0.067-0.373-0.12-0.12-0.040-0.24-0.107-0.347-0.173-0.107-0.080-0.213-0.16-0.307-0.253s-0.173-0.2-0.253-0.307c-0.067-0.107-0.133-0.227-0.187-0.347-0.040-0.12-0.080-0.24-0.107-0.373-0.027-0.12-0.040-0.253-0.040-0.387 0-0.52 0.213-1.040 0.587-1.413 0.093-0.093 0.2-0.173 0.307-0.253 0.107-0.067 0.227-0.133 0.347-0.173 0.12-0.053 0.24-0.093 0.373-0.12 0.253-0.053 0.52-0.053 0.773 0 0.133 0.027 0.253 0.067 0.373 0.12 0.12 0.040 0.24 0.107 0.347 0.173 0.107 0.080 0.213 0.16 0.307 0.253 0.373 0.373 0.587 0.893 0.587 1.413 0 0.133-0.013 0.267-0.040 0.387-0.027 0.133-0.067 0.253-0.107 0.373-0.053 0.12-0.12 0.24-0.187 0.347-0.080 0.107-0.16 0.213-0.253 0.307s-0.2 0.173-0.307 0.253c-0.107 0.067-0.227 0.133-0.347 0.173-0.12 0.053-0.24 0.093-0.373 0.12-0.12 0.027-0.253 0.040-0.387 0.040z"></path>
<path fill="currentColor" opacity="0.36" d="M10.333 19.667c-0.173 0-0.347-0.040-0.507-0.107-0.173-0.067-0.32-0.16-0.44-0.28-0.12-0.133-0.213-0.28-0.28-0.44s-0.107-0.333-0.107-0.507c0-0.347 0.147-0.693 0.387-0.947 0.493-0.493 1.4-0.493 1.893 0 0.24 0.253 0.387 0.6 0.387 0.947 0 0.173-0.040 0.347-0.107 0.507s-0.16 0.307-0.28 0.44c-0.253 0.24-0.6 0.387-0.947 0.387z"></path>
<path fill="currentColor" opacity="0.36" d="M21.667 19.667c-0.347 0-0.693-0.147-0.947-0.387-0.24-0.253-0.387-0.6-0.387-0.947s0.147-0.693 0.387-0.947c0.493-0.493 1.387-0.493 1.893 0 0.24 0.253 0.387 0.6 0.387 0.947 0 0.093-0.013 0.173-0.027 0.267-0.013 0.080-0.040 0.16-0.080 0.24-0.027 0.080-0.067 0.16-0.12 0.227-0.053 0.080-0.107 0.147-0.16 0.213-0.253 0.24-0.6 0.387-0.947 0.387z"></path>
<path fill="currentColor" opacity="0.16000000000000003" d="M10.333 23.667c-0.267 0-0.52-0.107-0.707-0.293-0.093-0.093-0.16-0.2-0.213-0.32s-0.080-0.253-0.080-0.387c0-0.133 0.027-0.253 0.080-0.387 0.053-0.12 0.12-0.227 0.213-0.32s0.2-0.16 0.32-0.213c0.24-0.107 0.52-0.107 0.773 0 0.12 0.053 0.227 0.12 0.32 0.213 0.187 0.187 0.293 0.44 0.293 0.707 0 0.133-0.027 0.267-0.080 0.387s-0.12 0.227-0.213 0.32c-0.187 0.187-0.44 0.293-0.707 0.293z"></path>
<path fill="currentColor" opacity="0.16000000000000003" d="M21.667 23.667c-0.133 0-0.267-0.027-0.387-0.080s-0.227-0.12-0.32-0.213c-0.093-0.093-0.173-0.2-0.213-0.32-0.053-0.12-0.080-0.253-0.080-0.387s0.027-0.267 0.080-0.387c0.053-0.12 0.12-0.227 0.213-0.32s0.2-0.16 0.32-0.213c0.24-0.107 0.52-0.107 0.773 0 0.12 0.053 0.227 0.12 0.32 0.213s0.16 0.2 0.213 0.32c0.053 0.12 0.080 0.253 0.080 0.387s-0.027 0.267-0.080 0.387c-0.053 0.12-0.12 0.227-0.213 0.32-0.187 0.187-0.44 0.293-0.707 0.293z"></path>
<path fill="currentColor" opacity="0.04000000000000001" d="M10.333 26.666c-0.173 0-0.347-0.067-0.467-0.2-0.133-0.12-0.2-0.293-0.2-0.467s0.067-0.347 0.2-0.467c0.24-0.253 0.693-0.253 0.933 0 0.133 0.12 0.2 0.293 0.2 0.467s-0.067 0.347-0.2 0.467c-0.12 0.133-0.293 0.2-0.467 0.2z"></path>
<path fill="currentColor" opacity="0.04000000000000001" d="M21.667 26.666c-0.093 0-0.173-0.013-0.253-0.053-0.080-0.027-0.16-0.080-0.213-0.147-0.067-0.053-0.12-0.133-0.147-0.213-0.040-0.080-0.053-0.16-0.053-0.253 0-0.173 0.067-0.347 0.2-0.467 0.24-0.253 0.693-0.253 0.933 0 0.133 0.12 0.2 0.293 0.2 0.467 0 0.093-0.013 0.173-0.053 0.253-0.027 0.080-0.080 0.16-0.147 0.213-0.12 0.133-0.293 0.2-0.467 0.2z"></path>
</svg>
