<!-- Generated by IcoMoon.io -->
<svg version="1.1" xmlns="http://www.w3.org/2000/svg" viewBox="0 0 32 32">
<path fill="currentColor" opacity="0.4" d="M29.333 16c0 3.68-2.987 6.667-6.667 6.667 0-3.68-2.987-6.667-6.667-6.667 3.68 0 6.667-2.987 6.667-6.667 3.68 0 6.667 2.987 6.667 6.667z"></path>
<path fill="currentColor" d="M22.667 22.667c-3.68 0-6.667-2.987-6.667-6.667 3.68 0 6.667 2.987 6.667 6.667z"></path>
<path fill="currentColor" opacity="0.4" d="M22.667 22.667c0 3.68-2.987 6.667-6.667 6.667s-6.667-2.987-6.667-6.667c3.68 0 6.667-2.987 6.667-6.667 0 3.68 2.987 6.667 6.667 6.667z"></path>
<path fill="currentColor" d="M22.667 9.333c0 3.68-2.987 6.667-6.667 6.667 0-3.68 2.987-6.667 6.667-6.667z"></path>
<path fill="currentColor" opacity="0.4" d="M22.667 9.333c-3.68 0-6.667 2.987-6.667 6.667 0-3.68-2.987-6.667-6.667-6.667 0-3.68 2.987-6.667 6.667-6.667s6.667 2.987 6.667 6.667z"></path>
<path fill="currentColor" d="M16 16c0 3.68-2.987 6.667-6.667 6.667 0-3.68 2.987-6.667 6.667-6.667z"></path>
<path fill="currentColor" d="M16 16c-3.68 0-6.667-2.987-6.667-6.667 3.68 0 6.667 2.987 6.667 6.667z"></path>
<path fill="currentColor" opacity="0.4" d="M16 16c-3.68 0-6.667 2.987-6.667 6.667-3.68 0-6.667-2.987-6.667-6.667s2.987-6.667 6.667-6.667c0 3.68 2.987 6.667 6.667 6.667z"></path>
</svg>
