<!-- Generated by IcoMoon.io -->
<svg version="1.1" xmlns="http://www.w3.org/2000/svg" viewBox="0 0 32 32">
<path fill="currentColor" d="M25.332 9.333c0 0.24-0.013 0.467-0.040 0.693-0.16 1.933-1.013 3.68-2.307 4.96-1.44 1.453-3.44 2.347-5.653 2.347h-4.173c-0.667 0-1.227 0.493-1.32 1.147l-1.013 7.040c-0.080 0.52-0.453 0.947-0.947 1.080-0.12 0.053-0.24 0.067-0.373 0.067h-2.6c-0.827 0-1.453-0.733-1.32-1.547l3.187-19.107c0.32-1.933 1.987-3.347 3.947-3.347h5.947c3.68 0 6.667 2.987 6.667 6.667z"></path>
<path fill="currentColor" opacity="0.4" d="M27.999 14.667c0 1.84-0.747 3.507-1.947 4.72-1.213 1.2-2.88 1.947-4.72 1.947h-2.867c-0.653 0-1.213 0.467-1.32 1.12l-0.96 5.76c-0.107 0.653-0.667 1.12-1.32 1.12h-3.907c-0.84 0-1.467-0.773-1.307-1.6l0.227-1.133c0.493-0.133 0.867-0.56 0.947-1.080l1.013-7.040c0.093-0.653 0.653-1.147 1.32-1.147h4.173c2.213 0 4.213-0.893 5.653-2.347 1.293-1.28 2.147-3.027 2.307-4.96 1.613 0.92 2.707 2.653 2.707 4.64z"></path>
</svg>
