<!-- Generated by IcoMoon.io -->
<svg version="1.1" xmlns="http://www.w3.org/2000/svg" viewBox="0 0 32 32">
<path fill="currentColor" opacity="0.4" d="M21.586 2.667h-11.16c-4.853 0-7.747 2.893-7.747 7.747v11.16c0 4.853 2.893 7.747 7.747 7.747h11.16c4.853 0 7.747-2.893 7.747-7.747v-11.16c0-4.853-2.893-7.747-7.747-7.747z"></path>
<path fill="currentColor" d="M10 22.333c-0.547 0-1-0.453-1-1v-10.667c0-0.547 0.453-1 1-1h2.667c2.027 0 3.667 1.64 3.667 3.667s-1.64 3.667-3.667 3.667h-1.667v4.333c0 0.547-0.453 1-1 1zM11 15h1.667c0.92 0 1.667-0.747 1.667-1.667s-0.747-1.667-1.667-1.667h-1.667v3.333z"></path>
<path fill="currentColor" d="M20.333 22.333h-1.667c-0.547 0-1-0.453-1-1s0.453-1 1-1h1.667c0.373 0 0.667-0.293 0.667-0.667s-0.293-0.667-0.667-0.667c-1.467 0-2.667-1.2-2.667-2.667s1.2-2.667 2.667-2.667h1.667c0.547 0 1 0.453 1 1s-0.453 1-1 1h-1.667c-0.373 0-0.667 0.293-0.667 0.667s0.293 0.667 0.667 0.667c1.467 0 2.667 1.2 2.667 2.667s-1.2 2.667-2.667 2.667z"></path>
</svg>
