<!-- Generated by IcoMoon.io -->
<svg version="1.1" xmlns="http://www.w3.org/2000/svg" viewBox="0 0 32 32">
<path fill="currentColor" opacity="0.4" d="M16 29.333c7.364 0 13.333-5.97 13.333-13.333s-5.97-13.333-13.333-13.333c-7.364 0-13.333 5.97-13.333 13.333s5.97 13.333 13.333 13.333z"></path>
<path fill="currentColor" d="M15.999 15.84c1.753 0 3.173-1.421 3.173-3.173s-1.421-3.173-3.173-3.173c-1.753 0-3.173 1.421-3.173 3.173s1.421 3.173 3.173 3.173z"></path>
<path fill="currentColor" d="M19.454 21.374l-1.6-2.013c0.44-0.12 0.88-0.28 1.293-0.48 0.48-0.267 0.653-0.853 0.4-1.333s-0.853-0.667-1.333-0.427c-1.387 0.693-3.040 0.693-4.427 0-0.493-0.253-1.093-0.053-1.347 0.44s-0.053 1.093 0.44 1.347c0.4 0.2 0.827 0.36 1.253 0.467l-1.587 2.013c-0.347 0.44-0.267 1.067 0.16 1.4 0.44 0.347 1.067 0.267 1.4-0.16l1.88-2.373 1.88 2.373c0.2 0.253 0.493 0.373 0.787 0.373 0.213 0 0.44-0.067 0.613-0.213 0.453-0.347 0.52-0.973 0.187-1.413z"></path>
</svg>
