<!-- Generated by IcoMoon.io -->
<svg version="1.1" xmlns="http://www.w3.org/2000/svg" viewBox="0 0 32 32">
<path fill="currentColor" d="M10.666 29c-0.027 0-0.053 0-0.067 0-0.52-0.040-0.933-0.467-0.933-1 0-0.76 0.093-1.467 0.293-2.12l2.387-16.693c0.080-0.547 0.587-0.92 1.133-0.853 0.547 0.080 0.933 0.587 0.853 1.133l-1.893 13.213c1.653-1 3.453-1.013 3.56-1.013 4.96 0 9-4.040 9-9s-4.040-9-9-9c-4.96 0-9 4.040-9 9 0 1.467 0.36 2.92 1.040 4.2 0.253 0.493 0.067 1.093-0.413 1.347-0.493 0.253-1.093 0.067-1.347-0.413-0.827-1.573-1.267-3.347-1.267-5.133 0-6.067 4.933-11 11-11s11 4.933 11 11-4.933 11-11 11c-0.12 0-2.947 0.053-3.96 2.333-0.040 0.107-0.093 0.213-0.12 0.32l-0.253 1.813c-0.093 0.507-0.52 0.867-1.013 0.867z"></path>
<path fill="currentColor" opacity="0.16000000000000003" d="M18.667 29.333c-0.347 0-0.693-0.147-0.947-0.387-0.24-0.253-0.387-0.6-0.387-0.947 0-0.173 0.040-0.347 0.107-0.507 0.067-0.173 0.16-0.307 0.28-0.44 0.373-0.373 0.96-0.493 1.453-0.28 0.173 0.067 0.307 0.16 0.44 0.28 0.12 0.133 0.213 0.267 0.28 0.44 0.067 0.16 0.107 0.333 0.107 0.507 0 0.347-0.147 0.693-0.387 0.947-0.133 0.12-0.267 0.213-0.44 0.28-0.16 0.067-0.333 0.107-0.507 0.107z"></path>
</svg>
