<!-- Generated by IcoMoon.io -->
<svg version="1.1" xmlns="http://www.w3.org/2000/svg" viewBox="0 0 32 32">
<path fill="currentColor" d="M19.333 24h-14.667c-0.547 0-1-0.453-1-1s0.453-1 1-1h14.667c4.6 0 8.333-3.733 8.333-8.333s-3.733-8.333-8.333-8.333h-6.667c-0.547 0-1-0.453-1-1s0.453-1 1-1h6.667c5.693 0 10.333 4.64 10.333 10.333s-4.64 10.333-10.333 10.333z"></path>
<path fill="currentColor" opacity="0.4" d="M18.413 19.853h-7.747c-0.547 0-1-0.453-1-1s0.453-1 1-1h7.747c2.16 0 3.92-1.76 3.92-3.92s-1.76-3.92-3.92-3.92h-14.187c-0.547 0-1-0.453-1-1s0.44-1.013 1-1.013h14.187c3.267 0 5.92 2.653 5.92 5.92s-2.653 5.933-5.92 5.933z"></path>
<path fill="currentColor" d="M11.333 15.333h-4c-0.547 0-1-0.453-1-1s0.453-1 1-1h4c0.547 0 1 0.453 1 1s-0.453 1-1 1z"></path>
<path fill="currentColor" opacity="0.4" d="M8.667 28.667h-5.333c-0.547 0-1-0.453-1-1s0.453-1 1-1h5.333c0.547 0 1 0.453 1 1s-0.453 1-1 1z"></path>
</svg>
