<!-- Generated by IcoMoon.io -->
<svg version="1.1" xmlns="http://www.w3.org/2000/svg" viewBox="0 0 32 32">
<path fill="currentColor" d="M28.507 15.267l-6-3.467c-0.307-0.173-0.693-0.173-1 0l-6 3.467c0 0 0 0.013-0.013 0.013l-5.493 3.173-5-2.893v-5.787l5-2.893 5 2.893v1.52c0 0.547 0.453 1 1 1s1-0.453 1-1v-2.093c0-0.36-0.187-0.693-0.507-0.867l-6-3.467c-0.307-0.173-0.693-0.173-1 0l-6 3.467c-0.307 0.173-0.507 0.507-0.507 0.867v6.933c0 0.36 0.187 0.693 0.507 0.867l6 3.467c0.16 0.093 0.333 0.133 0.507 0.133s0.347-0.040 0.507-0.133l6-3.467c0 0 0-0.013 0.013-0.013l5.493-3.173 5 2.893v5.773l-5 2.893-5-2.893v-1.627c0-0.547-0.453-1-1-1s-1 0.453-1 1v2.2c0 0.36 0.187 0.693 0.507 0.867l6 3.467c0.16 0.093 0.333 0.133 0.507 0.133s0.347-0.040 0.507-0.133l6-3.467c0.307-0.173 0.507-0.507 0.507-0.867v-6.933c-0.040-0.347-0.227-0.68-0.533-0.853z"></path>
<path fill="currentColor" opacity="0.4" d="M6 11.133v3.080c0 0.48 0.253 0.92 0.667 1.16l2.667 1.533c0.413 0.24 0.92 0.24 1.333 0l2.667-1.533c0.413-0.24 0.667-0.68 0.667-1.16v-3.080c0-0.48-0.253-0.92-0.667-1.16l-2.667-1.533c-0.413-0.24-0.92-0.24-1.333 0l-2.667 1.533c-0.413 0.24-0.667 0.68-0.667 1.16z"></path>
<path fill="currentColor" opacity="0.4" d="M18 18.067v3.080c0 0.48 0.253 0.92 0.667 1.16l2.667 1.533c0.413 0.24 0.92 0.24 1.333 0l2.667-1.533c0.413-0.24 0.667-0.68 0.667-1.16v-3.080c0-0.48-0.253-0.92-0.667-1.16l-2.667-1.533c-0.413-0.24-0.92-0.24-1.333 0l-2.667 1.533c-0.413 0.24-0.667 0.68-0.667 1.16z"></path>
</svg>
