<!-- Generated by IcoMoon.io -->
<svg version="1.1" xmlns="http://www.w3.org/2000/svg" viewBox="0 0 32 32">
<path fill="currentColor" d="M20.027 2.973c-2.667-0.413-5.387-0.413-8.053 0-1.093 0.173-1.893 1.107-1.893 2.2v4.907h-4.907c-1.093 0-2.027 0.8-2.2 1.893-0.413 2.667-0.413 5.387 0 8.053 0.173 1.093 1.107 1.893 2.2 1.893h4.907v-2.96c0-1.64 1.32-2.96 2.96-2.96h5.92c1.64 0 2.96-1.333 2.96-2.96v-7.867c0-1.093-0.8-2.027-1.893-2.2zM13.774 7.44c-0.547 0-1.080-0.52-1.080-1.080s0.52-1.067 1.080-1.067c0.253 0 0.56 0.12 0.747 0.293 0.2 0.187 0.333 0.507 0.333 0.773 0 0.56-0.52 1.080-1.080 1.080z"></path>
<path fill="currentColor" opacity="0.4" d="M29.027 11.973c-0.173-1.093-1.107-1.893-2.2-1.893h-4.907v2.96c0 1.627-1.32 2.96-2.96 2.96h-5.92c-1.64 0-2.96 1.32-2.96 2.96v7.867c0 1.093 0.8 2.027 1.893 2.2 2.667 0.413 5.387 0.413 8.053 0 1.093-0.173 1.893-1.107 1.893-2.2v-4.907h4.907c1.093 0 2.027-0.8 2.2-1.893 0.413-2.667 0.413-5.387 0-8.053zM18.227 26.707c-0.547 0-1.080-0.52-1.080-1.080s0.52-1.080 1.080-1.080c0.253 0 0.56 0.12 0.747 0.293 0.2 0.187 0.333 0.507 0.333 0.773-0.013 0.573-0.533 1.093-1.080 1.093z"></path>
</svg>
