<!-- Generated by IcoMoon.io -->
<svg version="1.1" xmlns="http://www.w3.org/2000/svg" viewBox="0 0 32 32">
<path fill="currentColor" opacity="0.6" d="M28 9.333v6.667l-5.333 3.707v-7.4l5.333-2.973z"></path>
<path fill="currentColor" opacity="0.6" d="M16 23.413v5.92l-12-6.667 5.333-2.973v0.013l6.667 3.707z"></path>
<path fill="currentColor" d="M9.333 12.307v7.387l-5.333 2.973v-13.333l5.333 2.973z"></path>
<path fill="currentColor" opacity="0.6" d="M16 2.667v5.92l-6.667 3.707v0.013l-5.333-2.973 12-6.667z"></path>
<path fill="currentColor" d="M22.667 12.307v-0.013l-6.667-3.707v-5.92l12 6.667-5.333 2.973z"></path>
<path fill="currentColor" d="M22.667 19.707v6.293l-6.667 3.333v-5.92l6.667-3.707z"></path>
<path fill="currentColor" opacity="0.4" d="M28 22.667v6.667l-5.333-3.333v-6.293l5.333 2.96z"></path>
<path fill="currentColor" opacity="0.4" d="M22.667 12.293v7.413l-6.667 3.707-6.667-3.707v-7.413l6.667-3.707 6.667 3.707z"></path>
</svg>
