<!-- Generated by IcoMoon.io -->
<svg version="1.1" xmlns="http://www.w3.org/2000/svg" viewBox="0 0 32 32">
<path fill="currentColor" opacity="0.4" d="M16 30.333c-7.907 0-14.333-6.427-14.333-14.333 0-1.987 0.4-3.893 1.187-5.707 0.227-0.507 0.813-0.733 1.32-0.52 0.507 0.227 0.733 0.813 0.52 1.32-0.667 1.547-1.013 3.2-1.013 4.907 0 6.8 5.533 12.333 12.333 12.333s12.333-5.533 12.333-12.333c0-6.8-5.547-12.333-12.347-12.333-1.72 0-3.4 0.347-4.96 1.040-0.493 0.227-1.093 0-1.32-0.507s0-1.093 0.507-1.32c1.827-0.8 3.76-1.213 5.773-1.213 7.907 0 14.333 6.427 14.333 14.333s-6.427 14.333-14.333 14.333z"></path>
<path fill="currentColor" d="M21.333 20.333v-4.333c0-3.133-2.533-5.667-5.667-5.667s-5.667 2.533-5.667 5.667c0 3.133 2.533 5.667 5.667 5.667h4.333c0.733 0 1.333-0.6 1.333-1.333z"></path>
<path fill="currentColor" d="M6.666 9.174c1.384 0 2.507-1.122 2.507-2.507s-1.122-2.507-2.507-2.507c-1.384 0-2.507 1.122-2.507 2.507s1.122 2.507 2.507 2.507z"></path>
</svg>
