<!-- Generated by IcoMoon.io -->
<svg version="1.1" xmlns="http://www.w3.org/2000/svg" viewBox="0 0 32 32">
<path fill="currentColor" d="M19.387 2.506c-1.64 0-2.973 1.333-2.973 2.973v6.187c0 1.64 1.333 2.973 2.973 2.973s2.973-1.333 2.973-2.973v-6.187c0-1.627-1.333-2.973-2.973-2.973z"></path>
<path fill="currentColor" opacity="0.4" d="M26.907 9.48c-1.427 0-2.587 1.16-2.587 2.587v2.093c0 0.28 0.227 0.507 0.507 0.507h2.093c1.427 0 2.587-1.16 2.587-2.587s-1.173-2.6-2.6-2.6z"></path>
<path fill="currentColor" d="M11.334 9.32h-6.187c-1.64 0-2.973 1.333-2.973 2.973s1.333 2.973 2.973 2.973h6.187c1.64 0 2.973-1.333 2.973-2.973s-1.333-2.973-2.973-2.973z"></path>
<path fill="currentColor" opacity="0.4" d="M11.719 2.16c-1.427 0-2.587 1.16-2.587 2.587s1.16 2.587 2.587 2.587h2.093c0.28 0 0.507-0.227 0.507-0.507v-2.093c-0.013-1.4-1.173-2.573-2.6-2.573z"></path>
<path fill="currentColor" d="M12.572 17.374c-1.64 0-2.973 1.333-2.973 2.973v6.187c0 1.64 1.333 2.973 2.973 2.973s2.973-1.333 2.973-2.973v-6.187c0-1.64-1.333-2.973-2.973-2.973z"></path>
<path fill="currentColor" opacity="0.4" d="M7.146 17.374h-2.093c-1.427 0-2.587 1.16-2.587 2.587s1.16 2.587 2.587 2.587c1.427 0 2.587-1.16 2.587-2.587v-2.093c0-0.267-0.227-0.493-0.493-0.493z"></path>
<path fill="currentColor" d="M26.814 16.76h-6.187c-1.64 0-2.973 1.333-2.973 2.973s1.333 2.973 2.973 2.973h6.187c1.64 0 2.973-1.333 2.973-2.973s-1.333-2.973-2.973-2.973z"></path>
<path fill="currentColor" opacity="0.4" d="M20.241 24.626h-2.093c-0.28 0-0.507 0.227-0.507 0.507v2.093c0 1.427 1.16 2.587 2.587 2.587s2.587-1.16 2.587-2.587c0.013-1.44-1.147-2.6-2.573-2.6z"></path>
</svg>
