<!-- Generated by IcoMoon.io -->
<svg version="1.1" xmlns="http://www.w3.org/2000/svg" viewBox="0 0 32 32">
<path fill="currentColor" opacity="0.4" d="M16 29.333c7.364 0 13.333-5.97 13.333-13.333s-5.97-13.333-13.333-13.333c-7.364 0-13.333 5.97-13.333 13.333s5.97 13.333 13.333 13.333z"></path>
<path fill="currentColor" d="M23.080 20.413c-0.387 0.213-0.707 0.307-0.973 0.373-0.227 0.053-0.413 0.107-0.573 0.213-0.173 0.107-0.187 0.28-0.213 0.44-0.027 0.147-0.040 0.267-0.147 0.347-0.12 0.080-0.347 0.093-0.653 0.107-0.4 0.027-0.907 0.040-1.52 0.227-0.293 0.107-0.56 0.267-0.827 0.427-0.533 0.333-1.133 0.693-2.187 0.693-1.040 0-1.64-0.36-2.173-0.693-0.267-0.173-0.533-0.333-0.84-0.44-0.6-0.187-1.12-0.213-1.52-0.227-0.307-0.013-0.52-0.027-0.653-0.107-0.107-0.067-0.12-0.2-0.147-0.347-0.027-0.16-0.040-0.333-0.213-0.44-0.16-0.107-0.36-0.16-0.573-0.227-0.267-0.067-0.587-0.147-0.973-0.36-0.453-0.253-0.187-0.4-0.040-0.48 2.573-1.24 2.973-3.16 2.987-3.307 0-0.013 0-0.013 0-0.027 0.027-0.16 0.040-0.293-0.147-0.467-0.12-0.12-0.533-0.387-0.867-0.6-0.147-0.107-0.28-0.187-0.36-0.227-0.373-0.267-0.533-0.52-0.413-0.853 0.080-0.227 0.293-0.307 0.507-0.307 0.067 0 0.147 0.013 0.2 0.027 0.24 0.053 0.48 0.147 0.693 0.227 0.147 0.067 0.267 0.107 0.36 0.133 0.027 0.013 0.067 0.013 0.080 0.013 0.133 0 0.173-0.067 0.16-0.2 0-0.040 0-0.080-0.013-0.12-0.027-0.467-0.067-1.28-0.013-2.027 0.107-1.12 0.467-1.693 0.893-2.173 0.213-0.24 1.187-1.267 3.040-1.267s2.827 1.027 3.040 1.253c0.427 0.493 0.787 1.053 0.893 2.187 0.067 0.787 0.013 1.627-0.027 2.093v0.040c-0.013 0.147 0.027 0.2 0.16 0.2 0.027 0 0.053 0 0.080-0.013 0.093-0.027 0.213-0.067 0.36-0.12 0.2-0.080 0.44-0.173 0.693-0.227 0.067-0.027 0.133-0.027 0.2-0.027 0.227 0 0.427 0.093 0.507 0.32 0.12 0.32-0.040 0.573-0.413 0.84-0.067 0.053-0.2 0.147-0.36 0.227-0.32 0.213-0.747 0.48-0.867 0.6-0.187 0.173-0.173 0.307-0.147 0.467 0 0.013 0 0.027 0 0.027 0.027 0.147 0.427 2.067 2.987 3.307 0.2 0.080 0.467 0.24 0.013 0.493z"></path>
</svg>
