<!-- Generated by IcoMoon.io -->
<svg version="1.1" xmlns="http://www.w3.org/2000/svg" viewBox="0 0 32 32">
<path fill="currentColor" d="M26.666 4.667h-19.333c-0.413 0-0.813 0.2-1.067 0.533l-2 2.667c-0.653 0.88-0.027 2.133 1.067 2.133h19.333c0.413 0 0.813-0.2 1.067-0.533l2-2.667c0.653-0.88 0.027-2.133-1.067-2.133z"></path>
<path fill="currentColor" opacity="0.4" d="M5.332 13.333h19.333c0.413 0 0.813 0.2 1.067 0.533l2 2.667c0.653 0.88 0.027 2.133-1.067 2.133h-19.333c-0.413 0-0.813-0.2-1.067-0.533l-2-2.667c-0.653-0.88-0.027-2.133 1.067-2.133z"></path>
<path fill="currentColor" d="M26.666 22h-19.333c-0.413 0-0.813 0.2-1.067 0.533l-2 2.667c-0.653 0.88-0.027 2.133 1.067 2.133h19.333c0.413 0 0.813-0.2 1.067-0.533l2-2.667c0.653-0.88 0.027-2.133-1.067-2.133z"></path>
</svg>
