<!-- Generated by IcoMoon.io -->
<svg version="1.1" xmlns="http://www.w3.org/2000/svg" viewBox="0 0 32 32">
<path fill="currentColor" opacity="0.4" d="M16 29.333c7.364 0 13.333-5.97 13.333-13.333s-5.97-13.333-13.333-13.333c-7.364 0-13.333 5.97-13.333 13.333s5.97 13.333 13.333 13.333z"></path>
<path fill="currentColor" d="M23.306 15.227c-0.2 0-0.4-0.067-0.587-0.187-3.973-2.853-9.067-3.48-13.6-1.667-0.52 0.2-1.093-0.053-1.293-0.56s0.053-1.093 0.56-1.293c5.173-2.053 10.973-1.347 15.507 1.907 0.453 0.32 0.547 0.947 0.227 1.4-0.187 0.253-0.493 0.4-0.813 0.4z"></path>
<path fill="currentColor" d="M21.214 18.814c-0.2 0-0.4-0.067-0.587-0.187-2.827-2.027-6.44-2.467-9.68-1.187-0.507 0.2-1.093-0.053-1.293-0.56-0.2-0.52 0.053-1.093 0.56-1.293 3.867-1.533 8.2-1 11.573 1.427 0.453 0.32 0.547 0.947 0.227 1.4-0.187 0.253-0.493 0.4-0.8 0.4z"></path>
<path fill="currentColor" d="M19.746 22.533c-0.2 0-0.4-0.067-0.587-0.187-2.053-1.467-4.68-1.787-7.027-0.867-0.507 0.2-1.093-0.053-1.293-0.56-0.2-0.52 0.053-1.093 0.56-1.293 2.987-1.187 6.32-0.773 8.92 1.093 0.453 0.32 0.547 0.947 0.227 1.4-0.173 0.267-0.48 0.413-0.8 0.413z"></path>
</svg>
