<!-- Generated by IcoMoon.io -->
<svg version="1.1" xmlns="http://www.w3.org/2000/svg" viewBox="0 0 32 32">
<path fill="currentColor" opacity="0.4" d="M16 29.333c7.364 0 13.333-5.97 13.333-13.333s-5.97-13.333-13.333-13.333c-7.364 0-13.333 5.97-13.333 13.333s5.97 13.333 13.333 13.333z"></path>
<path fill="currentColor" d="M9.999 15h12c0.547 0 1-0.453 1-1s-0.453-1-1-1h-4.067l2.653-3.76c0.32-0.453 0.213-1.080-0.24-1.387-0.453-0.32-1.080-0.213-1.387 0.24l-3.067 4.347-3.067-4.347c-0.32-0.453-0.947-0.56-1.387-0.24-0.453 0.32-0.56 0.947-0.24 1.387l2.653 3.76h-3.827c-0.547 0-1 0.453-1 1s0.427 1 0.973 1z"></path>
<path fill="currentColor" d="M22 17.001h-12c-0.547 0-1 0.453-1 1s0.453 1 1 1h3.827l-2.653 3.76c-0.32 0.453-0.213 1.080 0.24 1.387 0.173 0.12 0.373 0.187 0.573 0.187 0.32 0 0.627-0.147 0.813-0.427l3.067-4.347 3.067 4.347c0.2 0.28 0.507 0.427 0.813 0.427 0.2 0 0.4-0.053 0.573-0.187 0.453-0.32 0.56-0.947 0.24-1.387l-2.653-3.76h4.067c0.547 0 1-0.453 1-1s-0.427-1-0.973-1z"></path>
</svg>
