<!-- Generated by IcoMoon.io -->
<svg version="1.1" xmlns="http://www.w3.org/2000/svg" viewBox="0 0 32 32">
<path fill="currentColor" d="M30.213 6.187c-0.267-0.48-0.88-0.667-1.36-0.4l-22.587 12.427c-0.16-0.72-0.267-1.467-0.267-2.213 0-5.52 4.48-10 10-10 1.88 0 3.707 0.52 5.28 1.507 0.467 0.293 1.080 0.147 1.373-0.32s0.147-1.080-0.32-1.373c-1.893-1.187-4.080-1.813-6.333-1.813-6.613 0-12 5.387-12 12 0 1.080 0.147 2.147 0.427 3.187 0 0.013 0.013 0.013 0.013 0.027l-2.253 1.24c-0.48 0.267-0.667 0.88-0.4 1.36 0.187 0.333 0.52 0.52 0.88 0.52 0.16 0 0.333-0.040 0.48-0.12l26.667-14.667c0.48-0.267 0.667-0.88 0.4-1.36z"></path>
<path fill="currentColor" opacity="0.4" d="M30.213 10.853c-0.267-0.48-0.88-0.667-1.36-0.4l-2.813 1.547c-0.040 0.027-0.093 0.040-0.133 0.080l-23.72 13.040c-0.48 0.267-0.667 0.88-0.4 1.36 0.187 0.333 0.52 0.52 0.88 0.52 0.16 0 0.333-0.040 0.48-0.12l22.707-12.493c0.080 0.533 0.147 1.067 0.147 1.613 0 5.52-4.48 10-10 10-1.893 0-3.72-0.533-5.307-1.52-0.467-0.293-1.080-0.147-1.373 0.32s-0.16 1.080 0.32 1.373c1.907 1.2 4.107 1.827 6.373 1.827 6.613 0 12-5.387 12-12 0-0.893-0.133-1.76-0.32-2.613l2.133-1.173c0.467-0.267 0.653-0.88 0.387-1.36z"></path>
</svg>
