<!-- Generated by IcoMoon.io -->
<svg version="1.1" xmlns="http://www.w3.org/2000/svg" viewBox="0 0 32 32">
<path fill="currentColor" opacity="0.4" d="M9.96 4.467h12.080c1.413 0 3.080 1.027 3.707 2.293l3.2 6.427c0.773 1.547 0.347 3.747-0.92 4.907l-9.24 8.387c-1.533 1.387-4.027 1.387-5.56 0l-9.24-8.387c-1.28-1.16-1.693-3.36-0.92-4.907l3.2-6.427c0.613-1.267 2.28-2.293 3.693-2.293z"></path>
<path fill="currentColor" d="M21.333 10.333h-10.667c-0.547 0-1 0.453-1 1s0.453 1 1 1h4.333v7c0 0.547 0.453 1 1 1s1-0.453 1-1v-7h4.333c0.547 0 1-0.453 1-1s-0.453-1-1-1z"></path>
</svg>
