<!-- Generated by IcoMoon.io -->
<svg version="1.1" xmlns="http://www.w3.org/2000/svg" viewBox="0 0 32 32">
<path fill="currentColor" opacity="0.4" d="M16 29.333c7.364 0 13.333-5.97 13.333-13.333s-5.97-13.333-13.333-13.333c-7.364 0-13.333 5.97-13.333 13.333s5.97 13.333 13.333 13.333z"></path>
<path fill="currentColor" d="M15.080 18.587c2.489 0 4.507-2.018 4.507-4.507s-2.018-4.507-4.507-4.507c-2.489 0-4.507 2.018-4.507 4.507s2.018 4.507 4.507 4.507z"></path>
<path fill="currentColor" d="M22.013 11.080c-0.733 0-1.333-0.6-1.333-1.333s0.587-1.333 1.333-1.333h0.013c0.733 0 1.333 0.6 1.333 1.333-0.013 0.733-0.613 1.333-1.347 1.333z"></path>
<path fill="currentColor" d="M16.080 24.747c-0.253 0-0.507-0.093-0.707-0.293-0.387-0.387-0.387-1.027 0-1.413l4-4c0.387-0.387 1.027-0.387 1.413 0s0.387 1.027 0 1.413l-4 4c-0.187 0.2-0.453 0.293-0.707 0.293z"></path>
</svg>
