<!-- Generated by IcoMoon.io -->
<svg version="1.1" xmlns="http://www.w3.org/2000/svg" viewBox="0 0 32 32">
<path fill="currentColor" opacity="0.4" d="M21.587 2.667h-11.16c-4.867 0-7.76 2.893-7.76 7.747v11.16c0 4.853 2.893 7.747 7.747 7.747h11.16c4.853 0 7.747-2.893 7.747-7.747v-11.16c0.013-4.853-2.88-7.747-7.733-7.747z"></path>
<path fill="currentColor" d="M20.2 8h-8.4c-1.36 0-2.467 1.107-2.467 2.467v11.067c0 1.36 1.107 2.467 2.467 2.467h8.4c1.36 0 2.467-1.107 2.467-2.467v-11.067c0-1.36-1.107-2.467-2.467-2.467zM18.667 19h-1.667v1.667c0 0.547-0.453 1-1 1s-1-0.453-1-1v-1.667h-1.667c-0.547 0-1-0.453-1-1s0.453-1 1-1h5.333c0.547 0 1 0.453 1 1s-0.453 1-1 1zM18.667 15h-5.333c-0.547 0-1-0.453-1-1s0.453-1 1-1h1.667v-1.667c0-0.547 0.453-1 1-1s1 0.453 1 1v1.667h1.667c0.547 0 1 0.453 1 1s-0.453 1-1 1z"></path>
</svg>
