<!-- Generated by IcoMoon.io -->
<svg version="1.1" xmlns="http://www.w3.org/2000/svg" viewBox="0 0 32 32">
<path fill="currentColor" opacity="0.4" d="M21.586 2.667h-11.16c-4.853 0-7.747 2.893-7.747 7.747v11.16c0 4.853 2.893 7.747 7.747 7.747h11.16c4.853 0 7.747-2.893 7.747-7.747v-11.16c0-4.853-2.893-7.747-7.747-7.747z"></path>
<path fill="currentColor" d="M12.733 23.627h-3.267c-0.893 0-1.627-0.733-1.627-1.627v-11.973c0-0.893 0.733-1.627 1.627-1.627h3.267c0.893 0 1.627 0.733 1.627 1.627v11.973c0 0.893-0.733 1.627-1.627 1.627z"></path>
<path fill="currentColor" d="M22.853 18.174h-3.92c-0.72 0-1.307-0.587-1.307-1.307v-7.187c0-0.72 0.587-1.307 1.307-1.307h3.92c0.72 0 1.307 0.587 1.307 1.307v7.187c0 0.72-0.587 1.307-1.307 1.307z"></path>
</svg>
