<!-- Generated by IcoMoon.io -->
<svg version="1.1" xmlns="http://www.w3.org/2000/svg" viewBox="0 0 32 32">
<path fill="currentColor" opacity="0.4" d="M13.399 3.8l-11.72 11.72c-0.267 0.267-0.267 0.68 0 0.947l11.72 11.72c0.427 0.413 1.133 0.12 1.133-0.467v-3.453c0-0.173-0.067-0.347-0.2-0.467l-7.333-7.333c-0.267-0.267-0.267-0.68 0-0.947l7.333-7.333c0.12-0.12 0.2-0.293 0.2-0.467v-3.453c0-0.587-0.72-0.88-1.133-0.467z"></path>
<path fill="currentColor" d="M18.334 3.8l11.72 11.72c0.267 0.267 0.267 0.68 0 0.947l-11.72 11.72c-0.413 0.413-1.133 0.12-1.133-0.467v-3.453c0-0.173 0.067-0.347 0.2-0.467l7.333-7.333c0.267-0.267 0.267-0.68 0-0.947l-7.333-7.333c-0.12-0.12-0.2-0.293-0.2-0.467v-3.453c0-0.587 0.72-0.88 1.133-0.467z"></path>
<path fill="currentColor" d="M13.399 13.133l-2.387 2.387c-0.267 0.267-0.267 0.68 0 0.947l2.387 2.387c0.427 0.413 1.133 0.12 1.133-0.467v-4.787c0-0.587-0.72-0.88-1.133-0.467z"></path>
</svg>
