<!-- Generated by IcoMoon.io -->
<svg version="1.1" xmlns="http://www.w3.org/2000/svg" viewBox="0 0 32 32">
<path fill="currentColor" d="M27.547 10.72c0 0.307-0.080 0.627-0.28 0.88l-12.507 15.92c-0.453 0.573-0.987 0.773-1.44 0.613l0.013-0.133 1.333-14.667 12.053-2.413 0.827-0.2z"></path>
<path fill="currentColor" opacity="0.4" d="M27.547 10.72l-0.827 0.2-12.053 2.413 7.933-7.933c0.16 0.067 0.293 0.16 0.387 0.253l4.173 4.173c0.24 0.24 0.373 0.56 0.387 0.893z"></path>
<path fill="currentColor" d="M22.6 5.4l-7.933 7.933-10.653-9.467-0.467-0.453v-0.013c0.267-0.347 0.747-0.52 1.387-0.427l17.28 2.307c0.12 0.013 0.253 0.053 0.387 0.12z"></path>
<path fill="currentColor" opacity="0.4" d="M14.666 13.333l-1.333 14.667-0.013 0.133c-0.333-0.12-0.64-0.44-0.84-0.947l-8.96-22.4c-0.227-0.56-0.2-1.040 0.027-1.373l0.467 0.453 10.653 9.467z"></path>
</svg>
