<!-- Generated by IcoMoon.io -->
<svg version="1.1" xmlns="http://www.w3.org/2000/svg" viewBox="0 0 32 32">
<path fill="currentColor" opacity="0.4" d="M6.72 2.667h20.613c0.733 0 1.333 0.6 1.333 1.333v14.12c0 0.36-0.147 0.693-0.387 0.947l-5.88 5.88c-0.253 0.253-0.587 0.387-0.947 0.387h-5.4c-0.44 0-0.867 0.227-1.107 0.6l-1.88 2.813c-0.253 0.373-0.667 0.6-1.107 0.6h-1.947c-0.733 0-1.333-0.6-1.333-1.333v-1.333c0-0.733-0.6-1.333-1.333-1.333h-2.667c-0.733 0-1.333-0.6-1.333-1.333v-16.933c0-0.267 0.080-0.52 0.227-0.733l2.053-3.067c0.227-0.387 0.64-0.613 1.093-0.613z"></path>
<path fill="currentColor" d="M11.333 9.52v7.613c0 0.427 0.347 0.76 0.76 0.76h1.52c0.427 0 0.76-0.347 0.76-0.76v-7.613c0-0.427-0.347-0.76-0.76-0.76h-1.52c-0.413 0-0.76 0.347-0.76 0.76z"></path>
<path fill="currentColor" d="M18.948 9.52v7.613c0 0.427 0.347 0.76 0.76 0.76h1.52c0.427 0 0.76-0.347 0.76-0.76v-7.613c0-0.427-0.347-0.76-0.76-0.76h-1.52c-0.413 0-0.76 0.347-0.76 0.76z"></path>
</svg>
