<!-- Generated by IcoMoon.io -->
<svg version="1.1" xmlns="http://www.w3.org/2000/svg" viewBox="0 0 32 32">
<path fill="currentColor" opacity="0.4" d="M25.333 13.16v9.147c0 1.040-0.6 1.973-1.533 2.413l-8.667 4.080c-0.72 0.333-1.547 0.333-2.267 0l-8.667-4.080c-0.933-0.44-1.533-1.373-1.533-2.413v-9.947c0-1.040 0.6-1.973 1.533-2.413l8.667-4.080c0.72-0.333 1.547-0.333 2.267 0l3.56 1.68c-0.027 0.147-0.027 0.307-0.027 0.453 0 2.947 2.387 5.333 5.333 5.333 0.467 0 0.907-0.053 1.333-0.173z"></path>
<path fill="currentColor" d="M12 21.667c-2.027 0-3.667-1.64-3.667-3.667v-4c0-0.547 0.453-1 1-1s1 0.453 1 1v4c0 0.92 0.747 1.667 1.667 1.667s1.667-0.747 1.667-1.667v-4c0-0.547 0.453-1 1-1s1 0.453 1 1v4c0 2.027-1.64 3.667-3.667 3.667z"></path>
<path fill="currentColor" d="M18.667 21.587c-0.547 0-1-0.453-1-1v-6.587c0-0.547 0.453-1 1-1s1 0.453 1 1v6.587c0 0.56-0.453 1-1 1z"></path>
<path fill="currentColor" d="M24 8.453c-0.187 0-0.773 0.040-0.773 0.6 0 0.387 0.293 0.613 0.773 0.613s0.773-0.227 0.773-0.613c0-0.44-0.4-0.6-0.773-0.6z"></path>
<path fill="currentColor" d="M24.001 7.346c0.36 0 0.587-0.2 0.587-0.507 0-0.373-0.307-0.493-0.587-0.493s-0.587 0.133-0.587 0.493c0 0.307 0.227 0.507 0.587 0.507z"></path>
<path fill="currentColor" d="M24 2.667c-2.8 0-5.080 2.147-5.307 4.88-0.027 0.147-0.027 0.307-0.027 0.453 0 2.947 2.387 5.333 5.333 5.333 0.467 0 0.907-0.053 1.333-0.173 2.307-0.587 4-2.68 4-5.16 0-2.947-2.387-5.333-5.333-5.333zM24 10.933c-1.32 0-2.133-0.667-2.133-1.747 0-0.52 0.24-0.987 0.667-1.307-0.32-0.28-0.493-0.667-0.493-1.107 0-1.027 0.787-1.707 1.947-1.707s1.947 0.693 1.947 1.707c0 0.44-0.16 0.827-0.493 1.107 0.44 0.307 0.68 0.773 0.68 1.307 0.013 1.080-0.8 1.747-2.12 1.747z"></path>
</svg>
