<!-- Generated by IcoMoon.io -->
<svg version="1.1" xmlns="http://www.w3.org/2000/svg" viewBox="0 0 32 32">
<path fill="currentColor" opacity="0.4" d="M16 29.333c7.364 0 13.333-5.97 13.333-13.333s-5.97-13.333-13.333-13.333c-7.364 0-13.333 5.97-13.333 13.333s5.97 13.333 13.333 13.333z"></path>
<path fill="currentColor" d="M22.601 23.6c-0.253 0-0.507-0.093-0.707-0.293-0.387-0.387-0.387-1.027 0-1.413 1.573-1.573 2.44-3.667 2.44-5.893s-0.867-4.32-2.44-5.893c-0.387-0.387-0.387-1.027 0-1.413s1.027-0.387 1.413 0c1.947 1.947 3.027 4.547 3.027 7.307s-1.080 5.36-3.027 7.307c-0.2 0.2-0.453 0.293-0.707 0.293z"></path>
<path fill="currentColor" d="M9.4 23.6c-0.253 0-0.507-0.093-0.707-0.293-1.947-1.947-3.027-4.547-3.027-7.307s1.080-5.36 3.027-7.307c0.387-0.387 1.027-0.387 1.413 0s0.387 1.027 0 1.413c-1.573 1.573-2.44 3.667-2.44 5.893s0.867 4.32 2.44 5.893c0.387 0.387 0.387 1.027 0 1.413-0.2 0.2-0.453 0.293-0.707 0.293z"></path>
<path fill="currentColor" d="M18.201 15.706l-1.2-0.427v-2.64h0.040c0.587 0 1.080 0.533 1.080 1.173 0 0.547 0.453 1 1 1s1-0.453 1-1c0-1.747-1.373-3.173-3.080-3.173h-0.040v-0.24c0-0.547-0.453-1-1-1s-1 0.453-1 1v0.24h-0.307c-1.547 0-2.813 1.307-2.813 2.893 0 1.4 0.627 2.293 1.907 2.747l1.2 0.427v2.64h-0.040c-0.587 0-1.080-0.533-1.080-1.173 0-0.547-0.453-1-1-1s-1 0.453-1 1c0 1.747 1.373 3.173 3.080 3.173h0.040v0.24c0 0.547 0.453 1 1 1s1-0.453 1-1v-0.24h0.307c1.547 0 2.813-1.307 2.813-2.893 0-1.4-0.613-2.293-1.907-2.747zM14.454 14.4c-0.427-0.147-0.573-0.227-0.573-0.853 0-0.493 0.36-0.893 0.813-0.893h0.307v1.947l-0.547-0.2zM17.307 19.36h-0.307v-1.947l0.547 0.187c0.427 0.147 0.573 0.227 0.573 0.853-0.013 0.493-0.373 0.907-0.813 0.907z"></path>
</svg>
