<!-- Generated by IcoMoon.io -->
<svg version="1.1" xmlns="http://www.w3.org/2000/svg" viewBox="0 0 32 32">
<path fill="currentColor" d="M19.933 11.053c-0.107-0.227-0.347-0.373-0.6-0.373h-6.667c-0.253 0-0.48 0.147-0.6 0.373s-0.093 0.493 0.067 0.693l3.333 4.44c0.12 0.173 0.32 0.267 0.533 0.267s0.413-0.093 0.533-0.267l3.333-4.44c0.147-0.187 0.173-0.467 0.067-0.693z"></path>
<path fill="currentColor" opacity="0.4" d="M16 29.333c7.364 0 13.333-5.97 13.333-13.333s-5.97-13.333-13.333-13.333c-7.364 0-13.333 5.97-13.333 13.333s5.97 13.333 13.333 13.333z"></path>
<path fill="currentColor" d="M16.001 23.667c-0.32 0-0.627-0.16-0.813-0.413l-6.667-9.333c-0.32-0.453-0.213-1.080 0.227-1.4 0.453-0.32 1.080-0.213 1.4 0.227l5.853 8.2 5.853-8.2c0.32-0.453 0.947-0.56 1.4-0.227 0.453 0.32 0.56 0.947 0.227 1.4l-6.667 9.333c-0.187 0.253-0.493 0.413-0.813 0.413z"></path>
</svg>
