<!-- Generated by IcoMoon.io -->
<svg version="1.1" xmlns="http://www.w3.org/2000/svg" viewBox="0 0 32 32">
<path fill="currentColor" d="M16 30.333c-0.333 0-0.653-0.173-0.84-0.453l-12.053-18.667c-0.293-0.467-0.16-1.080 0.293-1.387 0.467-0.293 1.080-0.173 1.387 0.293l11.2 17.36 11.16-17.36c0.293-0.467 0.92-0.6 1.387-0.307s0.6 0.92 0.307 1.387l-12 18.667c-0.187 0.293-0.493 0.467-0.84 0.467z"></path>
<path fill="currentColor" opacity="0.4" d="M5.226 5.333h2.427c0.227 0 0.427 0.107 0.56 0.293l7.253 10.867c0.267 0.4 0.84 0.4 1.107 0l7.253-10.867c0.12-0.187 0.333-0.293 0.56-0.293h2.427c0.533 0 0.84 0.587 0.56 1.027l-10.773 16.773c-0.267 0.413-0.853 0.413-1.12 0l-10.773-16.773c-0.333-0.44-0.013-1.027 0.52-1.027z"></path>
<path fill="currentColor" d="M10.667 4l4.773 7.173c0.267 0.4 0.84 0.4 1.107 0l4.787-7.173-3.733 1.333v-2.667h-3.2v2.667l-3.733-1.333z"></path>
</svg>
