<!-- Generated by IcoMoon.io -->
<svg version="1.1" xmlns="http://www.w3.org/2000/svg" viewBox="0 0 32 32">
<path fill="currentColor" opacity="0.4" d="M15.667 12.573l-4.333 7.427-0.84 1.453-3.293 5.627c-0.24 0.427-0.853 0.44-1.12 0.027l-4.507-6.733c-0.147-0.227-0.147-0.52 0-0.747l4.893-7.333c0.12-0.187 0.333-0.293 0.56-0.293h8.307l0.333 0.573z"></path>
<path fill="currentColor" d="M30.452 19.64l-8.933-15.307c-0.107-0.213-0.333-0.333-0.573-0.333h-9.12c-0.52 0-0.84 0.56-0.573 1l8.16 14c0.267 0.44-0.053 1-0.573 1h-7.507l-0.84 1.453c0.24-0.427 0.853-0.44 1.12-0.027l4.187 6.28c0.12 0.187 0.333 0.293 0.56 0.293h8.613c0.227 0 0.44-0.107 0.56-0.293l4.907-7.36c0.133-0.213 0.147-0.48 0.013-0.707z"></path>
</svg>
