<!-- Generated by IcoMoon.io -->
<svg version="1.1" xmlns="http://www.w3.org/2000/svg" viewBox="0 0 32 32">
<path fill="currentColor" opacity="0.4" d="M16 29.333c7.364 0 13.333-5.97 13.333-13.333s-5.97-13.333-13.333-13.333c-7.364 0-13.333 5.97-13.333 13.333s5.97 13.333 13.333 13.333z"></path>
<path fill="currentColor" d="M22 12.213v5.107c0 1.040-1.133 1.68-2.013 1.147l-3.293-1.973c-0.427-0.253-0.947-0.253-1.373 0l-3.293 1.973c-0.893 0.533-2.013-0.107-2.013-1.147v-5.107c0-0.453 0.24-0.88 0.613-1.12l4.667-2.96c0.44-0.28 0.987-0.28 1.427 0l4.667 2.96c0.373 0.24 0.613 0.667 0.613 1.12z"></path>
<path fill="currentColor" d="M16.001 24.080c-0.2 0-0.387-0.053-0.56-0.173l-3-2c-0.453-0.307-0.587-0.933-0.28-1.387 0.307-0.467 0.933-0.587 1.387-0.28l2.44 1.627 2.44-1.627c0.453-0.307 1.080-0.187 1.387 0.28 0.307 0.453 0.187 1.080-0.28 1.387l-3 2c-0.147 0.12-0.333 0.173-0.533 0.173z"></path>
</svg>
