<!-- Generated by IcoMoon.io -->
<svg version="1.1" xmlns="http://www.w3.org/2000/svg" viewBox="0 0 32 32">
<path fill="currentColor" opacity="0.4" d="M9.254 27.507c1.987 1.16 4.293 1.827 6.747 1.827 7.507 0 13.747-6.627 13.307-14.12-0.453-7.733-7.48-13.693-15.573-12.36-5.573 0.92-10.040 5.44-10.907 11.013-0.507 3.227 0.16 6.28 1.613 8.8l-1.187 4.413c-0.267 1 0.653 1.907 1.64 1.627l4.36-1.2z"></path>
<path fill="currentColor" d="M22.667 20.227c0 0.24-0.053 0.493-0.173 0.733s-0.267 0.467-0.453 0.68c-0.333 0.36-0.693 0.627-1.093 0.787-0.4 0.173-0.84 0.253-1.307 0.253-0.68 0-1.413-0.16-2.173-0.493-0.773-0.333-1.533-0.773-2.293-1.32-0.773-0.56-1.493-1.187-2.187-1.867-0.693-0.693-1.307-1.427-1.867-2.187-0.547-0.76-0.987-1.52-1.307-2.28s-0.48-1.493-0.48-2.187c0-0.453 0.080-0.893 0.24-1.293 0.16-0.413 0.413-0.787 0.773-1.12 0.427-0.427 0.893-0.627 1.387-0.627 0.187 0 0.373 0.040 0.547 0.12s0.333 0.2 0.453 0.373l1.533 2.2c0.12 0.173 0.213 0.32 0.267 0.467 0.067 0.147 0.093 0.28 0.093 0.413 0 0.16-0.053 0.32-0.147 0.48s-0.213 0.32-0.373 0.48l-0.507 0.533c-0.080 0.080-0.107 0.16-0.107 0.267 0 0.053 0.013 0.107 0.027 0.16 0.027 0.053 0.040 0.093 0.053 0.133 0.12 0.227 0.333 0.507 0.627 0.853 0.307 0.347 0.627 0.707 0.973 1.053 0.36 0.36 0.707 0.68 1.067 0.987 0.347 0.293 0.64 0.493 0.867 0.613 0.040 0.013 0.080 0.040 0.12 0.053 0.053 0.027 0.107 0.027 0.173 0.027 0.12 0 0.2-0.040 0.28-0.12l0.507-0.507c0.173-0.173 0.333-0.293 0.48-0.373 0.16-0.093 0.307-0.147 0.48-0.147 0.133 0 0.267 0.027 0.413 0.093s0.307 0.147 0.467 0.267l2.213 1.573c0.173 0.12 0.293 0.267 0.373 0.427 0.013 0.147 0.053 0.307 0.053 0.493z"></path>
</svg>
