<!-- Generated by IcoMoon.io -->
<svg version="1.1" xmlns="http://www.w3.org/2000/svg" viewBox="0 0 32 32">
<path fill="currentColor" opacity="0.4" d="M27.733 2.987l-10.667 2.133c-0.627 0.12-1.067 0.667-1.067 1.307v6.907c0 0.733 0.6 1.333 1.333 1.333h10.667c0.733 0 1.333-0.6 1.333-1.333v-9.040c0-0.84-0.773-1.467-1.6-1.307z"></path>
<path fill="currentColor" d="M27.733 29.013l-10.667-2.133c-0.627-0.12-1.067-0.667-1.067-1.307v-6.907c0-0.733 0.6-1.333 1.333-1.333h10.667c0.733 0 1.333 0.6 1.333 1.333v9.040c0 0.84-0.773 1.467-1.6 1.307z"></path>
<path fill="currentColor" d="M11.72 6.080l-8 1.707c-0.613 0.133-1.053 0.68-1.053 1.307v4.24c0 0.733 0.6 1.333 1.333 1.333h8c0.733 0 1.333-0.6 1.333-1.333v-5.96c0-0.84-0.787-1.48-1.613-1.293z"></path>
<path fill="currentColor" opacity="0.4" d="M11.72 25.92l-8-1.707c-0.613-0.133-1.053-0.68-1.053-1.307v-4.24c0-0.733 0.6-1.333 1.333-1.333h8c0.733 0 1.333 0.6 1.333 1.333v5.96c0 0.84-0.787 1.48-1.613 1.293z"></path>
</svg>
