<!-- Generated by IcoMoon.io -->
<svg version="1.1" xmlns="http://www.w3.org/2000/svg" viewBox="0 0 32 32">
<path fill="currentColor" d="M22.481 6.667h3.133c0.24 0 0.453 0.133 0.573 0.333l3.213 5.6c0.12 0.2 0.12 0.453 0 0.653l-6.187 11.067c-0.253 0.453-0.893 0.453-1.16 0.013l-1.68-2.813c-0.12-0.213-0.12-0.467 0-0.667l4.347-7.6c0.12-0.2 0.12-0.453 0-0.667l-2.84-4.933c-0.227-0.427 0.093-0.987 0.6-0.987z"></path>
<path fill="currentColor" opacity="0.4" d="M13.147 6.667h3.133c0.24 0 0.453 0.133 0.573 0.333l3.213 5.6c0.12 0.2 0.12 0.453 0 0.653l-6.187 11.067c-0.253 0.453-0.893 0.453-1.16 0.013l-1.68-2.813c-0.12-0.213-0.12-0.467 0-0.667l4.347-7.6c0.12-0.2 0.12-0.453 0-0.667l-2.84-4.933c-0.227-0.427 0.093-0.987 0.6-0.987z"></path>
<path fill="currentColor" d="M2.401 6.667h4.28c0.24 0 0.467 0.133 0.587 0.333l3.227 5.72c0.12 0.2 0.12 0.453 0 0.667l-1.493 2.56c-0.253 0.44-0.893 0.44-1.147 0l-5.453-9.28z"></path>
</svg>
