<!-- Generated by IcoMoon.io -->
<svg version="1.1" xmlns="http://www.w3.org/2000/svg" viewBox="0 0 32 32">
<path fill="currentColor" opacity="0.4" d="M21.586 2.667h-11.16c-4.853 0-7.747 2.893-7.747 7.747v11.16c0 4.853 2.893 7.747 7.747 7.747h11.16c4.853 0 7.747-2.893 7.747-7.747v-11.16c0-4.853-2.893-7.747-7.747-7.747z"></path>
<path fill="currentColor" d="M23.947 10.293c-0.547 0-1 0.453-1 1v3.707h-1.36c-1.853 0-3.36 1.507-3.36 3.36s1.507 3.36 3.36 3.36h2.36c0.547 0 1-0.453 1-1v-9.413c0-0.573-0.453-1.013-1-1.013zM22.947 19.706h-1.36c-0.747 0-1.36-0.613-1.36-1.36s0.613-1.36 1.36-1.36h1.36v2.72z"></path>
<path fill="currentColor" d="M16.214 10.506c-0.427-0.347-1.067-0.28-1.4 0.16l-2.987 3.733-2.987-3.733c-0.347-0.427-0.973-0.507-1.4-0.16s-0.507 0.973-0.16 1.4l3.267 4.080-3.267 4.080c-0.347 0.427-0.28 1.067 0.16 1.4 0.187 0.147 0.4 0.213 0.627 0.213 0.293 0 0.587-0.133 0.787-0.373l2.987-3.733 2.987 3.733c0.2 0.24 0.493 0.373 0.787 0.373 0.213 0 0.44-0.067 0.627-0.213 0.427-0.347 0.507-0.973 0.16-1.4l-3.267-4.080 3.267-4.080c0.32-0.427 0.253-1.053-0.187-1.4z"></path>
</svg>
