<!-- Generated by IcoMoon.io -->
<svg version="1.1" xmlns="http://www.w3.org/2000/svg" viewBox="0 0 32 32">
<path fill="currentColor" opacity="0.4" d="M16 29.333c7.364 0 13.333-5.97 13.333-13.333s-5.97-13.333-13.333-13.333c-7.364 0-13.333 5.97-13.333 13.333s5.97 13.333 13.333 13.333z"></path>
<path fill="currentColor" d="M18 21c-0.547 0-1-0.453-1-1v-5.333c0-0.92-0.747-1.667-1.667-1.667h-4.333v7c0 0.547-0.453 1-1 1s-1-0.453-1-1v-8c0-0.547 0.453-1 1-1h5.333c2.027 0 3.667 1.64 3.667 3.667v5.333c0 0.547-0.453 1-1 1z"></path>
<path fill="currentColor" d="M14 21c-0.547 0-1-0.453-1-1v-4c0-0.547 0.453-1 1-1s1 0.453 1 1v4c0 0.547-0.453 1-1 1z"></path>
<path fill="currentColor" d="M22 21c-0.547 0-1-0.453-1-1v-8c0-0.547 0.453-1 1-1s1 0.453 1 1v8c0 0.547-0.453 1-1 1z"></path>
</svg>
