<!-- Generated by IcoMoon.io -->
<svg version="1.1" xmlns="http://www.w3.org/2000/svg" viewBox="0 0 32 32">
<path fill="currentColor" d="M7.281 2.667h-1.88c-1.24 0-1.867 1.507-0.987 2.387l7.64 7.64c2.187 2.187 5.72 2.187 7.907 0l7.64-7.64c0.867-0.88 0.24-2.387-1-2.387h-1.88c-1.107 0-2.173 0.44-2.96 1.227l-4.773 4.773c-0.547 0.547-1.427 0.547-1.973 0l-4.773-4.773c-0.787-0.787-1.853-1.227-2.96-1.227z"></path>
<path fill="currentColor" opacity="0.4" d="M7.281 29.294h-1.88c-1.24 0-1.867-1.507-0.987-2.387l7.64-7.64c2.187-2.187 5.72-2.187 7.907 0l7.64 7.64c0.88 0.88 0.253 2.387-0.987 2.387h-1.88c-1.107 0-2.173-0.44-2.96-1.227l-4.773-4.773c-0.547-0.547-1.427-0.547-1.973 0l-4.773 4.773c-0.8 0.787-1.867 1.227-2.973 1.227z"></path>
</svg>
