<!-- Generated by IcoMoon.io -->
<svg version="1.1" xmlns="http://www.w3.org/2000/svg" viewBox="0 0 32 32">
<path fill="currentColor" opacity="0.4" d="M16 29.333c7.364 0 13.333-5.97 13.333-13.333s-5.97-13.333-13.333-13.333c-7.364 0-13.333 5.97-13.333 13.333s5.97 13.333 13.333 13.333z"></path>
<path fill="currentColor" d="M14 15.28v3.427c0 0.24-0.133 0.453-0.333 0.573l-2.667 1.533c-0.2 0.12-0.453 0.12-0.667 0l-2.667-1.533c-0.213-0.12-0.333-0.333-0.333-0.573v-3.040c0-0.24 0.133-0.453 0.333-0.573l2.667-1.533c0.2-0.12 0.467-0.12 0.667 0l1.333 0.773 1.667 0.947z"></path>
<path fill="currentColor" d="M24.667 15.667v3.040c0 0.24-0.133 0.453-0.333 0.573l-2.667 1.533c-0.2 0.12-0.453 0.12-0.667 0l-2.667-1.533c-0.213-0.12-0.333-0.333-0.333-0.573v-3.427l1.667-0.947 1.333-0.773c0.2-0.12 0.453-0.12 0.667 0l2.667 1.533c0.2 0.107 0.333 0.333 0.333 0.573z"></path>
<path fill="currentColor" d="M19.667 12.827v1.507l-1.667 0.947v2.307l-1.667 0.96c-0.2 0.12-0.453 0.12-0.667 0l-1.667-0.96v-2.307l-1.667-0.947v-1.507c0-0.24 0.133-0.453 0.333-0.573l3-1.72c0.2-0.12 0.453-0.12 0.667 0l3 1.72c0.2 0.107 0.333 0.333 0.333 0.573z"></path>
</svg>
