<!-- Generated by IcoMoon.io -->
<svg version="1.1" xmlns="http://www.w3.org/2000/svg" viewBox="0 0 32 32">
<path fill="currentColor" opacity="0.4" d="M16 29.333c7.364 0 13.333-5.97 13.333-13.333s-5.97-13.333-13.333-13.333c-7.364 0-13.333 5.97-13.333 13.333s5.97 13.333 13.333 13.333z"></path>
<path fill="currentColor" d="M8.333 12.906v3.733c0 2.053 1.667 3.707 3.72 3.693l4.907-0.040c0.68 0 1.227-0.56 1.227-1.227v-3.693c0-2.040-1.653-3.693-3.693-3.693h-4.92c-0.693 0-1.24 0.547-1.24 1.227z"></path>
<path fill="currentColor" d="M23.667 13.359v5.307c0 0.573-0.64 0.92-1.12 0.6l-2.56-1.707c-0.2-0.133-0.32-0.36-0.32-0.6v-1.893c0-0.24 0.12-0.467 0.32-0.6l2.56-1.707c0.48-0.32 1.12 0.027 1.12 0.6z"></path>
</svg>
